<svg xmlns="http://www.w3.org/2000/svg" width="21.861" height="25" viewBox="0 0 21.861 25">
  <g id="edit" transform="translate(-27.879 -24.545)">
    <path id="Path_35143" data-name="Path 35143" d="M17.791,0" transform="translate(27.74 48.545)" fill="none" stroke="#929292" stroke-width="1"/>
    <path id="Path_35073" data-name="Path 35073" d="M43.586,32.59a.4.4,0,0,0-.544-.042L31.287,44.5a.979.979,0,0,0-.265.517l-.794,4.38a.253.253,0,0,0,.084.21.277.277,0,0,0,.224.067l4.507-1a1.046,1.046,0,0,0,.524-.282l11.76-11.953a.364.364,0,0,0-.072-.517Z" transform="translate(-1.291 -4.259)" fill="#5e5e5e"/>
    <path id="Path_35074" data-name="Path 35074" d="M65.984,27.99l-3.66-3.327a.431.431,0,0,0-.592,0l-2.323,2.361a.449.449,0,0,0,0,.651l3.578,3.234a.5.5,0,0,0,.678,0l2.323-2.361A.391.391,0,0,0,65.984,27.99Z" transform="translate(-16.364 0)" fill="#5e5e5e"/>
    <rect id="Rectangle_1618" data-name="Rectangle 1618" width="18" height="1" transform="translate(27.879 48.545)" fill="#5e5e5e"/>
  </g>
</svg>
