<svg xmlns="http://www.w3.org/2000/svg" width="18.148" height="24.35" viewBox="0 0 18.148 24.35">
  <g id="rubbish-bin" transform="translate(-52.016)">
    <g id="Group_25273" data-name="Group 25273" transform="translate(52.016)">
      <path id="Path_35144" data-name="Path 35144" d="M74.86,116.714a1.226,1.226,0,0,0,1.224,1.174h11.44a1.226,1.226,0,0,0,1.224-1.174l.817-17.246H74.043Zm9.532-12.963a.5.5,0,0,1,.5-.5h.8a.5.5,0,0,1,.5.5V113.6a.5.5,0,0,1-.5.5h-.8a.5.5,0,0,1-.5-.5Zm-3.484,0a.5.5,0,0,1,.5-.5h.8a.5.5,0,0,1,.5.5V113.6a.5.5,0,0,1-.5.5h-.8a.5.5,0,0,1-.5-.5v-9.853Zm-3.484,0a.5.5,0,0,1,.5-.5h.8a.5.5,0,0,1,.5.5V113.6a.5.5,0,0,1-.5.5h-.8a.5.5,0,0,1-.5-.5Z" transform="translate(-72.73 -93.539)" fill="#5e5e5e"/>
      <path id="Path_35145" data-name="Path 35145" d="M69.4,1.254H64.118v-1A.257.257,0,0,0,63.861,0H58.319a.257.257,0,0,0-.257.257v1H52.785a.769.769,0,0,0-.769.769V4.439H70.165V2.023A.769.769,0,0,0,69.4,1.254Z" transform="translate(-52.016)" fill="#5e5e5e"/>
    </g>
  </g>
</svg>
