<svg id="user" xmlns="http://www.w3.org/2000/svg" width="89.997" height="90" viewBox="0 0 89.997 90">
  <path id="Path_35223" data-name="Path 35223" d="M25.019,64.974,11.592,72.3a12.067,12.067,0,0,0-2.155,1.533,44.971,44.971,0,0,0,57.782.149A11.912,11.912,0,0,0,64.852,72.4L50.474,65.207a5.483,5.483,0,0,1-3.031-4.9V54.662a21.724,21.724,0,0,0,1.36-1.749,33.086,33.086,0,0,0,4.469-9.007,4.516,4.516,0,0,0,3.2-4.3V33.588a4.5,4.5,0,0,0-1.5-3.337v-8.7S56.758,8,38.414,8,21.857,21.547,21.857,21.547v8.7a4.489,4.489,0,0,0-1.5,3.337V39.61A4.514,4.514,0,0,0,22.434,43.4a29.881,29.881,0,0,0,5.444,11.264v5.5A5.489,5.489,0,0,1,25.019,64.974Z" transform="translate(6.588 5.586)" fill="#fff" opacity="0.8"/>
  <g id="Group_25927" data-name="Group 25927" transform="translate(0 0)" opacity="0.49">
    <path id="Path_35224" data-name="Path 35224" d="M45.769.007A44.972,44.972,0,0,0,16.044,79.4a11.959,11.959,0,0,1,2.135-1.518l13.427-7.324a5.485,5.485,0,0,0,2.858-4.814v-5.5a29.853,29.853,0,0,1-5.444-11.264,4.516,4.516,0,0,1-2.082-3.788V39.172a4.5,4.5,0,0,1,1.5-3.337v-8.7S26.654,13.585,45,13.585,61.555,27.131,61.555,27.131v8.7a4.489,4.489,0,0,1,1.5,3.337v6.022a4.516,4.516,0,0,1-3.2,4.3A33.084,33.084,0,0,1,55.387,58.5c-.494.7-1.36,1.749-1.36,1.749v5.641a5.481,5.481,0,0,0,3.031,4.9l14.378,7.188a11.974,11.974,0,0,1,2.36,1.583A44.99,44.99,0,0,0,45.769.007Z" transform="translate(0 0)" fill="#7f7f7f"/>
  </g>
</svg>
