 <svg xmlns="http://www.w3.org/2000/svg" width="26.749" height="27.537" viewBox="0 0 26.749 27.537">
  <g id="Group_27957" data-name="Group 27957" transform="translate(-1131 -82)">
    <g id="Group_27955" data-name="Group 27955" transform="translate(1131 82)">
      <path id="Path_35991" data-name="Path 35991" d="M17.732,14.855H14.855v2.877a.959.959,0,1,1-1.918,0V14.855H10.06a.959.959,0,1,1,0-1.918h2.877V10.06a.959.959,0,1,1,1.918,0v2.877h2.877a.959.959,0,1,1,0,1.918Z" transform="translate(-9.101 -9.101)" fill="#114886"/>
    </g>
    <g id="noun_profile_1536698" transform="translate(1140.265 15.889)">
      <g id="Group_27954" data-name="Group 27954" transform="translate(-5.4 72.47)">
        <path id="Path_36008" data-name="Path 36008" d="M35.955,19.311A4.955,4.955,0,1,0,31,14.355,4.953,4.953,0,0,0,35.955,19.311Zm0-8.346a3.391,3.391,0,1,1-3.391,3.391A3.384,3.384,0,0,1,35.955,10.965Z" transform="translate(-26.983 -9.4)" fill="#114886"/>
        <path id="Path_36009" data-name="Path 36009" d="M16.382,60.293H32.761a.768.768,0,0,0,.782-.782V56.642A7.046,7.046,0,0,0,26.5,49.6h-3.86A7.046,7.046,0,0,0,15.6,56.642v2.869A.768.768,0,0,0,16.382,60.293Zm.782-3.625a5.476,5.476,0,0,1,5.477-5.477H26.5a5.476,5.476,0,0,1,5.477,5.477v2.086H17.165Z" transform="translate(-15.6 -39.115)" fill="#114886"/>
      </g>
    </g>
    <path id="Path_36010" data-name="Path 36010" d="M5.764,0C8.947,0,10.3,1.432,10.3,4.663S8.947,11.7,5.764,11.7A5.808,5.808,0,0,1,0,5.851,5.808,5.808,0,0,1,5.764,0Z" transform="translate(1147 96.315)" fill="none"/>
    <path id="Path_36003" data-name="Path 36003" d="M9.7,8.522,7.537,6.362c-.011-.011-.025-.019-.037-.03A4.088,4.088,0,1,0,6.332,7.5c.011.012.019.025.03.037L8.522,9.7A.831.831,0,0,0,9.7,8.522ZM4.086,6.756a2.67,2.67,0,1,1,2.67-2.67A2.67,2.67,0,0,1,4.086,6.756Z" transform="translate(1147.809 98.135)" fill="#114886" fill-rule="evenodd"/>
  </g>
</svg>
