<svg xmlns="http://www.w3.org/2000/svg" width="32" height="28" viewBox="0 0 32 28">
  <g id="Group_27956" data-name="Group 27956" transform="translate(-1012 -82)">
    <path id="Path_35997" data-name="Path 35997" d="M13.42,15l2.214,4.446a1,1,0,0,0,.895.554l.071,0a1,1,0,0,0,.878-.682l2.556-7.7,1.41,2.831a1,1,0,0,0,.9.554H24a1,1,0,0,0,0-2H22.959L20.745,8.554A.989.989,0,0,0,19.779,8a1,1,0,0,0-.878.682l-2.556,7.7-1.41-2.831a1,1,0,0,0-.9-.554H3a1,1,0,0,0,0,2ZM26,4H6A3,3,0,0,0,3,7v4a1,1,0,0,0,2,0V7A1,1,0,0,1,6,6H26a1,1,0,0,1,1,1V21a1,1,0,0,1-1,1H6a1,1,0,0,1-1-1V17a1,1,0,0,0-2,0v4a3,3,0,0,0,3,3H26a3,3,0,0,0,3-3V7a3,3,0,0,0-3-3ZM21,26H11a1,1,0,0,0,0,2H21a1,1,0,0,0,0-2Z" transform="translate(1015 82)" fill="#114886"/>
    <path id="Path_35998" data-name="Path 35998" d="M5.764,0c3.183,0,6.3,1.187,6.3,4.418S8.947,11.7,5.764,11.7A5.808,5.808,0,0,1,0,5.851,5.808,5.808,0,0,1,5.764,0Z" transform="translate(1012 83.315)" fill="#fff"/>
    <g id="Group_27928" data-name="Group 27928" transform="translate(1013 82)">
      <path id="Path_35991" data-name="Path 35991" d="M17.732,14.855H14.855v2.877a.959.959,0,1,1-1.918,0V14.855H10.06a.959.959,0,1,1,0-1.918h2.877V10.06a.959.959,0,1,1,1.918,0v2.877h2.877a.959.959,0,1,1,0,1.918Z" transform="translate(-9.101 -9.101)" fill="#114886"/>
    </g>
  </g>
</svg>
