<svg xmlns="http://www.w3.org/2000/svg" width="16.026" height="25.8" viewBox="0 0 16.026 25.8">
  <g id="Admin" transform="translate(-21.8 -4.6)">
    <g id="Group_27984" data-name="Group 27984" transform="translate(21.8 4.6)">
      <path id="Path_36053" data-name="Path 36053" d="M30.438,46.2h-1.25A7.409,7.409,0,0,0,21.8,53.588V60.18H37.826V53.588A7.409,7.409,0,0,0,30.438,46.2Zm5.115,11.707H24.073V53.588a5.13,5.13,0,0,1,5.115-5.115h1.25a5.13,5.13,0,0,1,5.115,5.115Z" transform="translate(-21.8 -34.38)" fill="#114886"/>
      <path id="Path_36054" data-name="Path 36054" d="M41.884,9.913a5.342,5.342,0,1,0-5.342,5.342A5.33,5.33,0,0,0,41.884,9.913Zm-8.411,0a3.069,3.069,0,1,1,3.069,3.069A3.056,3.056,0,0,1,33.473,9.913Z" transform="translate(-28.529 -4.6)" fill="#114886"/>
    </g>
  </g>
</svg>
