<svg xmlns="http://www.w3.org/2000/svg" width="28.837" height="28.679" viewBox="0 0 28.837 28.679">
  <g id="noun_Pie_Chart_1721475" data-name="noun_Pie Chart_1721475" transform="translate(-11.116 -10.885)">
    <path id="Path_36020" data-name="Path 36020" d="M54.556,26.7h1.181c.226,0,.409.314.409.7v6.011c0,.391-.183.705-.409.705H54.556c-.228,0-.411-.314-.411-.705V27.4C54.146,27.013,54.328,26.7,54.556,26.7Z" transform="translate(-26.1 -10.08)" fill="#114886"/>
    <path id="Path_36021" data-name="Path 36021" d="M65.881,19.133h1.181c.226,0,.409.314.409.7v8.681c0,.391-.183.705-.409.705H65.881c-.226,0-.411-.314-.411-.705V19.834C65.471,19.447,65.656,19.133,65.881,19.133Z" transform="translate(-33.429 -5.184)" fill="#114886"/>
    <path id="Path_36022" data-name="Path 36022" d="M77.432,11.121h1.181c.228,0,.411.314.411.7V23.332c0,.391-.183.705-.411.705H77.432c-.226,0-.409-.314-.409-.705V11.823C77.023,11.435,77.206,11.121,77.432,11.121Z" transform="translate(-40.904)" fill="#114886"/>
    <path id="Path_36023" data-name="Path 36023" d="M35.015,36.16A13.285,13.285,0,0,0,38.9,27.44H25.593a.7.7,0,0,1-.7-.7v-13.3A13.322,13.322,0,1,0,35.015,36.16Z" transform="translate(0 -1.498)" fill="none" stroke="#114886" stroke-width="2"/>
  </g>
</svg>
