<svg xmlns="http://www.w3.org/2000/svg" width="36.438" height="29.632" viewBox="0 0 36.438 29.632">
  <g id="Group_28008" data-name="Group 28008" transform="translate(-312.562 -84.368)">
    <g id="Group_28005" data-name="Group 28005" transform="translate(-492)">
      <path id="Path_35859" data-name="Path 35859" d="M75.47,72.69H74.193V67.952a.65.65,0,0,1,.638-.661h4.9v1.322H75.47Z" transform="translate(756.452 37.455)" fill="#114886"/>
      <path id="Path_35861" data-name="Path 35861" d="M43.891,48.453h-27.8a.467.467,0,0,1-.467-.467V33.872a.467.467,0,0,1,.933,0V47.519H43.7l2.834-2.763V24.891H16.558v9.8c0,.258-.209-1.284-.467-1.284s-.467,1.845-.467,1.588V24.425a.467.467,0,0,1,.467-.467H47a.467.467,0,0,1,.467.467V44.953a.466.466,0,0,1-.141.334L44.216,48.32A.467.467,0,0,1,43.891,48.453Z" transform="translate(789.187 62.159)" fill="#114886" stroke="#114886" stroke-width="0.5"/>
      <path id="Path_35863" data-name="Path 35863" d="M23.335,26.235c-.991,0-1.71-1.267-1.71-3.013s.719-3.014,1.71-3.014c.648,0,1.188.525,1.482,1.441a.652.652,0,0,1-1.241.4,1.484,1.484,0,0,0-.242-.493,2.866,2.866,0,0,0-.406,1.667,2.862,2.862,0,0,0,.407,1.667,2.066,2.066,0,0,0,.343-.909.652.652,0,0,1,1.283.229C24.738,25.459,24.115,26.235,23.335,26.235Z" transform="translate(785.986 64.16)" fill="#114886"/>
      <path id="Path_35864" data-name="Path 35864" d="M33.335,26.235c-.991,0-1.71-1.267-1.71-3.014s.719-3.014,1.71-3.014c.648,0,1.188.525,1.482,1.441a.652.652,0,0,1-1.241.4,1.483,1.483,0,0,0-.242-.493,2.866,2.866,0,0,0-.406,1.667,2.862,2.862,0,0,0,.407,1.667,2.066,2.066,0,0,0,.343-.909.652.652,0,0,1,1.283.229C34.738,25.459,34.115,26.235,33.335,26.235Z" transform="translate(780.652 64.16)" fill="#114886"/>
      <path id="Path_35865" data-name="Path 35865" d="M43.335,26.235c-.991,0-1.71-1.267-1.71-3.014s.719-3.014,1.71-3.014c.648,0,1.188.525,1.482,1.441a.652.652,0,1,1-1.241.4,1.484,1.484,0,0,0-.242-.493,2.866,2.866,0,0,0-.406,1.667,2.862,2.862,0,0,0,.407,1.667,2.066,2.066,0,0,0,.343-.909.652.652,0,0,1,1.283.229C44.738,25.459,44.115,26.235,43.335,26.235Z" transform="translate(775.317 64.16)" fill="#114886"/>
      <path id="Path_35866" data-name="Path 35866" d="M53.335,26.235c-.991,0-1.71-1.267-1.71-3.014s.719-3.014,1.71-3.014c.648,0,1.188.525,1.482,1.441a.652.652,0,0,1-1.241.4,1.483,1.483,0,0,0-.242-.493,2.866,2.866,0,0,0-.406,1.667,2.862,2.862,0,0,0,.407,1.667,2.066,2.066,0,0,0,.343-.909.652.652,0,1,1,1.283.229C54.738,25.459,54.115,26.235,53.335,26.235Z" transform="translate(769.983 64.16)" fill="#114886"/>
      <path id="Path_35867" data-name="Path 35867" d="M63.335,26.235c-.991,0-1.71-1.267-1.71-3.014s.719-3.014,1.71-3.014c.648,0,1.188.525,1.482,1.441a.652.652,0,1,1-1.241.4,1.484,1.484,0,0,0-.242-.493,2.866,2.866,0,0,0-.406,1.667,2.862,2.862,0,0,0,.407,1.667,2.066,2.066,0,0,0,.343-.909.652.652,0,1,1,1.283.229C64.738,25.459,64.115,26.235,63.335,26.235Z" transform="translate(764.649 64.16)" fill="#114886"/>
      <path id="Path_35868" data-name="Path 35868" d="M73.335,26.235c-.991,0-1.71-1.267-1.71-3.014s.719-3.014,1.71-3.014c.648,0,1.188.525,1.482,1.441a.652.652,0,0,1-1.241.4,1.484,1.484,0,0,0-.242-.493,2.866,2.866,0,0,0-.406,1.667,2.862,2.862,0,0,0,.407,1.667,2.066,2.066,0,0,0,.343-.909.652.652,0,0,1,1.283.229C74.738,25.459,74.115,26.235,73.335,26.235Z" transform="translate(759.314 64.16)" fill="#114886"/>
      <g id="Rectangle_1768" data-name="Rectangle 1768" transform="translate(808.011 97.639)" fill="none" stroke="#114886" stroke-width="1">
        <rect width="3.792" height="3.792" stroke="none"/>
        <rect x="0.5" y="0.5" width="2.792" height="2.792" fill="none"/>
      </g>
      <g id="Rectangle_1772" data-name="Rectangle 1772" transform="translate(808.011 103.327)" fill="none" stroke="#114886" stroke-width="1">
        <rect width="3.792" height="3.792" stroke="none"/>
        <rect x="0.5" y="0.5" width="2.792" height="2.792" fill="none"/>
      </g>
      <g id="Rectangle_1764" data-name="Rectangle 1764" transform="translate(814.647 91.951)" fill="none" stroke="#114886" stroke-width="1">
        <rect width="3.792" height="3.792" stroke="none"/>
        <rect x="0.5" y="0.5" width="2.792" height="2.792" fill="none"/>
      </g>
      <g id="Rectangle_1769" data-name="Rectangle 1769" transform="translate(814.647 97.639)" fill="none" stroke="#114886" stroke-width="1">
        <rect width="3.792" height="3.792" stroke="none"/>
        <rect x="0.5" y="0.5" width="2.792" height="2.792" fill="none"/>
      </g>
      <g id="Rectangle_1773" data-name="Rectangle 1773" transform="translate(814.647 103.327)" fill="none" stroke="#114886" stroke-width="1">
        <rect width="3.792" height="3.792" stroke="none"/>
        <rect x="0.5" y="0.5" width="2.792" height="2.792" fill="none"/>
      </g>
      <g id="Rectangle_1765" data-name="Rectangle 1765" transform="translate(821.282 91.951)" fill="none" stroke="#114886" stroke-width="1">
        <rect width="3.792" height="3.792" stroke="none"/>
        <rect x="0.5" y="0.5" width="2.792" height="2.792" fill="none"/>
      </g>
      <g id="Rectangle_1770" data-name="Rectangle 1770" transform="translate(821.282 97.639)" fill="none" stroke="#114886" stroke-width="1">
        <rect width="3.792" height="3.792" stroke="none"/>
        <rect x="0.5" y="0.5" width="2.792" height="2.792" fill="none"/>
      </g>
      <g id="Rectangle_1774" data-name="Rectangle 1774" transform="translate(821.282 103.327)" fill="none" stroke="#114886" stroke-width="1">
        <rect width="3.792" height="3.792" stroke="none"/>
        <rect x="0.5" y="0.5" width="2.792" height="2.792" fill="none"/>
      </g>
      <g id="Rectangle_1766" data-name="Rectangle 1766" transform="translate(827.918 91.951)" fill="none" stroke="#114886" stroke-width="1">
        <rect width="3.792" height="3.792" stroke="none"/>
        <rect x="0.5" y="0.5" width="2.792" height="2.792" fill="none"/>
      </g>
      <g id="Rectangle_1767" data-name="Rectangle 1767" transform="translate(827.918 97.639)" fill="none" stroke="#114886" stroke-width="1">
        <rect width="3.792" height="3.792" stroke="none"/>
        <rect x="0.5" y="0.5" width="2.792" height="2.792" fill="none"/>
      </g>
    </g>
    <g id="Group_28007" data-name="Group 28007" transform="translate(-11 -4)">
      <circle id="Ellipse_37" data-name="Ellipse 37" cx="7" cy="7" r="7" transform="translate(346 104)" fill="#fff"/>
      <g id="Group_28006" data-name="Group 28006" transform="translate(-337.37 21.632)">
        <path id="Path_35540" data-name="Path 35540" d="M7.441,12.441a5,5,0,1,1,5-5A5.006,5.006,0,0,1,7.441,12.441Z" transform="translate(682.929 81.927)" fill="none" stroke="#114886" stroke-width="1"/>
        <path id="Path_35541" data-name="Path 35541" d="M31.215,17.8l-1.575-1.11a.6.6,0,0,0-.225-.438V13.983a.377.377,0,0,0-.754,0v2.264A.6.6,0,0,0,29.2,17.3l1.579,1.114a.377.377,0,0,0,.434-.616Z" transform="translate(661.331 73.035)" fill="#114886" stroke="#114886" stroke-width="0.75"/>
      </g>
    </g>
  </g>
</svg>
