<svg xmlns="http://www.w3.org/2000/svg" width="27.936" height="27.94" viewBox="0 0 27.936 27.94">
  <g id="Batches" transform="translate(-218.919 -86.034)">
    <g id="Items" transform="translate(205 61.607)">
      <g id="Group_28029" data-name="Group 28029" transform="translate(19.9 29.26)">
        <path id="Path_36194" data-name="Path 36194" d="M9.323,13.7,3.5,10.362v-6.7L9.266.3,15.06,3.635l.028,6.7ZM4.065,10.023l5.229,3,5.229-3.024-.028-6.02-5.229-3L4.065,4Z" transform="translate(-3.5 -0.3)" fill="#114886" stroke="#114886" stroke-width="0.5"/>
        <rect id="Rectangle_2663" data-name="Rectangle 2663" width="0.565" height="6.36" transform="matrix(0.502, 0.865, -0.865, 0.502, 11.147, 3.253)" fill="#114886" stroke="#114886" stroke-width="0.5"/>
        <rect id="Rectangle_2664" data-name="Rectangle 2664" width="6.36" height="0.565" transform="translate(6.074 6.683) rotate(89.692)" fill="#114886" stroke="#114886" stroke-width="0.5"/>
        <rect id="Rectangle_2665" data-name="Rectangle 2665" width="6.36" height="0.565" transform="translate(0.421 3.29) rotate(29.847)" fill="#114886" stroke="#114886" stroke-width="0.5"/>
        <path id="Path_36195" data-name="Path 36195" d="M19.736,11.825H19.17V9.79L13.8,6.709l.283-.509,5.653,3.25Z" transform="translate(-10.889 -4.532)" fill="#114886" stroke="#114886" stroke-width="0.5"/>
      </g>
    </g>
    <g id="noun_Batch_process_1716475" data-name="noun_Batch process_1716475" transform="translate(154.283 86.611)">
      <g id="Group_28035" data-name="Group 28035" transform="translate(64.635 -0.577)">
        <g id="noun_stack_333627" transform="translate(0)">
          <path id="Path_36203" data-name="Path 36203" d="M61.53,31.743H60.467V30.648a1.946,1.946,0,0,0-1.94-1.94h-.939v-.861a1.946,1.946,0,0,0-1.94-1.94H37.474a1.946,1.946,0,0,0-1.94,1.94V46.076a1.946,1.946,0,0,0,1.94,1.94h.345v.861a1.946,1.946,0,0,0,1.94,1.94h.535v1.09a1.946,1.946,0,0,0,1.94,1.94h19.3a1.946,1.946,0,0,0,1.94-1.94V33.683a1.946,1.946,0,0,0-1.94-1.94ZM37.2,46.351a.4.4,0,0,1-.116-.272V27.847a.379.379,0,0,1,.116-.272.4.4,0,0,1,.272-.116H55.64a.379.379,0,0,1,.272.116.394.394,0,0,1,.116.272V46.075a.379.379,0,0,1-.116.272.4.4,0,0,1-.272.116H37.474A.391.391,0,0,1,37.2,46.351Zm2.285,2.8a.4.4,0,0,1-.116-.272v-.865H55.64a1.946,1.946,0,0,0,1.94-1.94V30.26h.939a.379.379,0,0,1,.272.116.394.394,0,0,1,.116.272V48.877a.379.379,0,0,1-.116.272.4.4,0,0,1-.272.116H39.759a.4.4,0,0,1-.276-.113Zm22.435,2.755a.379.379,0,0,1-.116.272.4.4,0,0,1-.272.116h-19.3a.379.379,0,0,1-.272-.116.4.4,0,0,1-.116-.272v-1.09H58.523a1.946,1.946,0,0,0,1.94-1.94V33.295h1.063a.379.379,0,0,1,.272.116.4.4,0,0,1,.116.272V51.907Z" transform="translate(-35.534 -25.907)" fill="#114886"/>
        </g>
      </g>
    </g>
  </g>
</svg>
