<svg xmlns="http://www.w3.org/2000/svg" width="32.592" height="33" viewBox="0 0 32.592 33">
  <g id="Billing_Portal" data-name="Billing Portal" transform="translate(-1200.408 -78)">
    <g id="Ellipse_35" data-name="Ellipse 35" transform="translate(1214 78)" fill="#fff" stroke="#114886" stroke-width="1.5">
      <ellipse cx="9.5" cy="16.5" rx="9.5" ry="16.5" stroke="none"/>
      <ellipse cx="9.5" cy="16.5" rx="8.75" ry="15.75" fill="none"/>
    </g>
    <ellipse id="Ellipse_36" data-name="Ellipse 36" cx="9.5" cy="12" rx="9.5" ry="12" transform="translate(1211 84)" fill="#fff"/>
    <g id="Billing_Setup" data-name="Billing Setup" transform="translate(141.126)">
      <g id="noun_bill_1458921" transform="translate(1059.282 83.027)">
        <g id="Group" transform="translate(0 0)">
          <path id="Path" d="M39.05,38h4.132a.65.65,0,0,0,0-1.3H39.05a.65.65,0,1,0,0,1.3Z" transform="translate(-29.236 -28.352)" fill="#114886"/>
          <path id="Path-2" data-name="Path" d="M43.654,50.7H38.7c-.168,0-.3.291-.3.65s.136.65.3.65h4.949c.168,0,.3-.291.3-.65S43.822,50.7,43.654,50.7Z" transform="translate(-29.236 -37.803)" fill="#114886"/>
          <path id="Compound_Path" data-name="Compound Path" d="M36.068,13.51a1.625,1.625,0,0,0-2.7-1.2l-1.1.975a.325.325,0,0,1-.422,0l-2.08-1.852a1.625,1.625,0,0,0-2.177,0l-2.08,1.852a.325.325,0,0,1-.422,0L23,11.43a1.625,1.625,0,0,0-2.177,0l-2.047,1.852a.325.325,0,0,1-.422,0l-1.1-.975a1.625,1.625,0,0,0-2.7,1.235V29.011h-3.7a.65.65,0,0,0-.65.65v2.372a4.322,4.322,0,0,0,4.16,4.322H31.745a4.322,4.322,0,0,0,4.322-4.322ZM14.522,35.088A3.022,3.022,0,0,1,11.5,32.066V30.311H27.423v1.722a4.322,4.322,0,0,0,1.235,3.055Zm20.246-3.022a3.038,3.038,0,0,1-6.077,0v-2.4a.65.65,0,0,0-.65-.65H15.822V13.51a.325.325,0,0,1,.552-.227l1.1.975a1.625,1.625,0,0,0,2.145,0l2.08-1.852a.325.325,0,0,1,.422,0l2.08,1.852a1.625,1.625,0,0,0,2.177,0l2.08-1.852a.325.325,0,0,1,.422,0l2.08,1.852a1.625,1.625,0,0,0,2.177,0l1.1-.975a.325.325,0,0,1,.552.227Z" transform="translate(-10.2 -11.012)" fill="#114886"/>
        </g>
      </g>
      <path id="Billing" d="M27.685,20.909c0,.489-.619.753-1.2.753-.657,0-1.234-.4-1.234-.866H23.7a2.5,2.5,0,0,0,1.993,2.32v1.078h1.555v-1.06a2.346,2.346,0,0,0,2-2.224c0-.766-.44-1.822-2.534-2.5-.885-.285-1.456-.684-1.456-1.017,0-.489.619-.753,1.2-.753.657,0,1.234.4,1.234.866H29.24a2.5,2.5,0,0,0-2-2.32V14.111H25.688v1.061A2.346,2.346,0,0,0,23.7,17.4c0,.766.439,1.821,2.534,2.5.884.285,1.456.684,1.456,1.016Z" transform="translate(1052.283 74.687)" fill="#114886"/>
    </g>
  </g>
</svg>
