<svg xmlns="http://www.w3.org/2000/svg" width="17.575" height="30.318" viewBox="0 0 17.575 30.318">
  <path id="Billing" d="M34.9,33.2c0,1.373-1.739,2.114-3.374,2.114-1.846,0-3.465-1.136-3.465-2.432H23.7c0,3.076,2.365,5.678,5.6,6.515v3.027h4.368V39.451c3.308-.739,5.609-3.176,5.609-6.247,0-2.153-1.235-5.117-7.117-7.013-2.485-.8-4.09-1.922-4.09-2.856,0-1.373,1.739-2.114,3.374-2.114,1.846,0,3.465,1.136,3.465,2.432H39.27c0-3.079-2.37-5.683-5.609-6.518V14.111H29.293v2.979c-3.3.742-5.6,3.177-5.6,6.245,0,2.152,1.234,5.116,7.117,7.014,2.484.8,4.09,1.922,4.09,2.855Z" transform="translate(-22.695 -13.111)" fill="none" stroke="#fff" stroke-width="2"/>
</svg>
