<svg xmlns="http://www.w3.org/2000/svg" width="22.751" height="22.448" viewBox="0 0 22.751 22.448">
  <g id="Group_27913" data-name="Group 27913" transform="translate(-436.059 -249.312)">
    <path id="Path_35823" data-name="Path 35823" d="M25.223,15.6H24.17v1.264a1.9,1.9,0,0,1-3.792,0V15.6H18.271v1.264a1.9,1.9,0,0,1-3.792,0V15.6H12.373v1.264a1.9,1.9,0,0,1-3.792,0V15.6H7.528A2.531,2.531,0,0,0,5,18.128V32.992A2.531,2.531,0,0,0,7.528,35.52h17.7a2.531,2.531,0,0,0,2.528-2.528V18.128A2.531,2.531,0,0,0,25.223,15.6Zm.843,17.392a.843.843,0,0,1-.843.843H7.528a.843.843,0,0,1-.843-.843V21.5a.843.843,0,0,1,.843-.843h17.7a.842.842,0,0,1,.843.843Z" transform="translate(431.058 236.239)" fill="#114886"/>
    <path id="Path_35824" data-name="Path 35824" d="M22.931,10.656a1.264,1.264,0,0,0,1.264-1.264V6.864a1.264,1.264,0,0,0-2.528,0V9.392A1.264,1.264,0,0,0,22.931,10.656Z" transform="translate(418.604 243.712)" fill="#114886"/>
    <path id="Path_35825" data-name="Path 35825" d="M46.264,10.656a1.264,1.264,0,0,0,1.264-1.264V6.864a1.264,1.264,0,0,0-2.528,0V9.392A1.264,1.264,0,0,0,46.264,10.656Z" transform="translate(401.17 243.712)" fill="#114886"/>
    <path id="Path_35826" data-name="Path 35826" d="M69.6,10.656a1.264,1.264,0,0,0,1.264-1.264V6.864a1.264,1.264,0,1,0-2.528,0V9.392A1.264,1.264,0,0,0,69.6,10.656Z" transform="translate(383.735 243.712)" fill="#114886"/>
    <path id="Path_35522" data-name="Path 35522" d="M17.209,5.156a4.9,4.9,0,0,0-3.328,1.337L13.906,5.3a.458.458,0,1,0-.915-.019l-.051,2.446A.458.458,0,0,0,13.4,8.2l2.446-.051a.458.458,0,0,0-.009-.915h-.01l-1.422.026a4.067,4.067,0,0,1,2.8-1.184A3.986,3.986,0,0,1,21.139,10a.458.458,0,1,0,.915,0A4.915,4.915,0,0,0,17.209,5.156Z" transform="translate(430.578 253.578)" fill="#114886" stroke="#114886" stroke-width="1"/>
    <path id="Path_35523" data-name="Path 35523" d="M12.244,51.3a4.9,4.9,0,0,0,3.328-1.337l-.025,1.192a.458.458,0,0,0,.447.467H16a.458.458,0,0,0,.458-.449l.051-2.446a.458.458,0,0,0-.134-.327.447.447,0,0,0-.331-.14l-2.446.053a.458.458,0,1,0,.019.915l1.422-.027a4.067,4.067,0,0,1-2.8,1.184,3.985,3.985,0,0,1-3.929-3.93.458.458,0,1,0-.915,0A4.914,4.914,0,0,0,12.244,51.3Z" transform="translate(435.484 217.122)" fill="#114886" stroke="#114886" stroke-width="1"/>
  </g>
</svg>
