<svg xmlns="http://www.w3.org/2000/svg" width="22.751" height="22.448" viewBox="0 0 22.751 22.448">
  <g id="Group_27912" data-name="Group 27912" transform="translate(-396.244 -249.312)">
    <path id="Path_35813" data-name="Path 35813" d="M37.528,42.267H35.843A.843.843,0,0,0,35,43.11v.843a.843.843,0,0,0,.843.843h1.685a.842.842,0,0,0,.843-.843V43.11A.842.842,0,0,0,37.528,42.267Z" transform="translate(368.828 216.314)" fill="#114886"/>
    <path id="Path_35814" data-name="Path 35814" d="M54.195,42.267H52.51a.843.843,0,0,0-.843.843v.843a.842.842,0,0,0,.843.843h1.685a.842.842,0,0,0,.843-.843V43.11A.842.842,0,0,0,54.195,42.267Z" transform="translate(356.374 216.314)" fill="#114886"/>
    <path id="Path_35815" data-name="Path 35815" d="M70.861,42.267H69.176a.843.843,0,0,0-.843.843v.843a.843.843,0,0,0,.843.843h1.685a.843.843,0,0,0,.843-.843V43.11A.843.843,0,0,0,70.861,42.267Z" transform="translate(343.921 216.314)" fill="#114886"/>
    <path id="Path_35816" data-name="Path 35816" d="M20.861,56.667H19.176a.842.842,0,0,0-.843.843v.843a.843.843,0,0,0,.843.843h1.685a.843.843,0,0,0,.843-.843V57.51A.842.842,0,0,0,20.861,56.667Z" transform="translate(381.282 205.554)" fill="#114886"/>
    <path id="Path_35817" data-name="Path 35817" d="M37.528,56.667H35.843A.843.843,0,0,0,35,57.51v.843a.843.843,0,0,0,.843.843h1.685a.843.843,0,0,0,.843-.843V57.51A.842.842,0,0,0,37.528,56.667Z" transform="translate(368.828 205.554)" fill="#114886"/>
    <path id="Path_35818" data-name="Path 35818" d="M54.195,56.667H52.51a.842.842,0,0,0-.843.843v.843a.843.843,0,0,0,.843.843h1.685a.843.843,0,0,0,.843-.843V57.51A.842.842,0,0,0,54.195,56.667Z" transform="translate(356.374 205.554)" fill="#114886"/>
    <path id="Path_35819" data-name="Path 35819" d="M70.861,56.667H69.176a.843.843,0,0,0-.843.843v.843a.843.843,0,0,0,.843.843h1.685a.843.843,0,0,0,.843-.843V57.51A.843.843,0,0,0,70.861,56.667Z" transform="translate(343.921 205.554)" fill="#114886"/>
    <path id="Path_35820" data-name="Path 35820" d="M20.861,71.066H19.176a.843.843,0,0,0-.843.843v.843a.842.842,0,0,0,.843.843h1.685a.842.842,0,0,0,.843-.843v-.843A.843.843,0,0,0,20.861,71.066Z" transform="translate(381.282 194.795)" fill="#114886"/>
    <path id="Path_35821" data-name="Path 35821" d="M37.528,71.066H35.843a.843.843,0,0,0-.843.843v.843a.843.843,0,0,0,.843.843h1.685a.842.842,0,0,0,.843-.843v-.843A.843.843,0,0,0,37.528,71.066Z" transform="translate(368.828 194.795)" fill="#114886"/>
    <path id="Path_35822" data-name="Path 35822" d="M54.195,71.066H52.51a.843.843,0,0,0-.843.843v.843a.842.842,0,0,0,.843.843h1.685a.842.842,0,0,0,.843-.843v-.843A.843.843,0,0,0,54.195,71.066Z" transform="translate(356.374 194.795)" fill="#114886"/>
    <path id="Path_35823" data-name="Path 35823" d="M25.223,15.6H24.17v1.264a1.9,1.9,0,0,1-3.792,0V15.6H18.271v1.264a1.9,1.9,0,1,1-3.792,0V15.6H12.373v1.264a1.9,1.9,0,0,1-3.792,0V15.6H7.528A2.531,2.531,0,0,0,5,18.128V32.992A2.531,2.531,0,0,0,7.528,35.52h17.7a2.531,2.531,0,0,0,2.528-2.528V18.128A2.531,2.531,0,0,0,25.223,15.6Zm.843,17.392a.843.843,0,0,1-.843.843H7.528a.843.843,0,0,1-.843-.843V21.5a.843.843,0,0,1,.843-.843h17.7a.842.842,0,0,1,.843.843Z" transform="translate(391.244 236.239)" fill="#114886"/>
    <path id="Path_35824" data-name="Path 35824" d="M22.931,10.656a1.264,1.264,0,0,0,1.264-1.264V6.864a1.264,1.264,0,1,0-2.528,0V9.392A1.264,1.264,0,0,0,22.931,10.656Z" transform="translate(378.791 243.712)" fill="#114886"/>
    <path id="Path_35825" data-name="Path 35825" d="M46.264,10.656a1.264,1.264,0,0,0,1.264-1.264V6.864a1.264,1.264,0,0,0-2.528,0V9.392A1.264,1.264,0,0,0,46.264,10.656Z" transform="translate(361.356 243.712)" fill="#114886"/>
    <path id="Path_35826" data-name="Path 35826" d="M69.6,10.656a1.264,1.264,0,0,0,1.264-1.264V6.864a1.264,1.264,0,1,0-2.528,0V9.392A1.264,1.264,0,0,0,69.6,10.656Z" transform="translate(343.921 243.712)" fill="#114886"/>
  </g>
</svg>
