<svg xmlns="http://www.w3.org/2000/svg" width="18.36" height="21.742" viewBox="0 0 18.36 21.742">
  <g id="noun_Document_1212456" transform="translate(-12 -5)">
    <path id="Path_36029" data-name="Path 36029" d="M27.725,39.449h2.416a.725.725,0,1,0,0-1.449H27.725a.725.725,0,0,0,0,1.449Z" transform="translate(-11.376 -25.028)" fill="#fff"/>
    <path id="Path_36030" data-name="Path 36030" d="M27.7,7.416h-.254A2.657,2.657,0,0,0,24.8,5h-7.76a.725.725,0,0,0-.517.217L12.208,9.626a.725.725,0,0,0-.208.507V21.186a2.657,2.657,0,0,0,2.416,2.645v.254a2.657,2.657,0,0,0,2.657,2.657H27.7a2.657,2.657,0,0,0,2.657-2.657V10.073A2.657,2.657,0,0,0,27.7,7.416Zm-11.354.053V9.348a.242.242,0,0,1-.242.242H14.271Zm-2.9,13.717V11.039h2.657A1.691,1.691,0,0,0,17.8,9.348v-2.9H24.8a1.208,1.208,0,0,1,1.208,1.208V21.186A1.208,1.208,0,0,1,24.8,22.394H14.657A1.208,1.208,0,0,1,13.449,21.186Zm15.461,2.9A1.208,1.208,0,0,1,27.7,25.293H17.073a1.208,1.208,0,0,1-1.208-1.208v-.242H24.8a2.657,2.657,0,0,0,2.657-2.657V8.865H27.7a1.208,1.208,0,0,1,1.208,1.208Z" transform="translate(0)" fill="#fff"/>
    <path id="Path_36031" data-name="Path 36031" d="M27.725,51.449h6.764a.725.725,0,1,0,0-1.449H27.725a.725.725,0,1,0,0,1.449Z" transform="translate(-11.376 -34.129)" fill="#fff"/>
    <path id="Path_36032" data-name="Path 36032" d="M27.725,63.449h6.764a.725.725,0,1,0,0-1.449H27.725a.725.725,0,0,0,0,1.449Z" transform="translate(-11.376 -43.23)" fill="#fff"/>
  </g>
</svg>
