<svg xmlns="http://www.w3.org/2000/svg" width="27.334" height="27.162" viewBox="0 0 27.334 27.162">
  <g id="Group_27906" data-name="Group 27906" transform="translate(-464.497 -82.42)">
    <path id="Path_35847" data-name="Path 35847" d="M3.333,1.627A1.647,1.647,0,0,0,1.668,0,1.648,1.648,0,0,0,0,1.627,1.65,1.65,0,0,0,1.668,3.261,1.651,1.651,0,0,0,3.333,1.627Z" transform="translate(477.05 92.193)" fill="#114886"/>
    <path id="Path_35848" data-name="Path 35848" d="M7.007,2.771A3.449,3.449,0,0,0,5.009,0,2.466,2.466,0,0,1,2,0,3.445,3.445,0,0,0,0,2.773,5.259,5.259,0,0,0,7.007,2.771Z" transform="translate(475.213 95.689)" fill="#114886"/>
    <path id="Path_35850" data-name="Path 35850" d="M0,6.677,6.682,0,8.149,1.466,1.468,8.145Z" transform="translate(464.781 101.158) rotate(2)" fill="#114886"/>
    <path id="Path_35851" data-name="Path 35851" d="M15.163,7.583A7.582,7.582,0,1,1,7.583,0a7.583,7.583,0,0,1,7.581,7.583Zm-1.515,0a6.066,6.066,0,1,0-6.065,6.065,6.066,6.066,0,0,0,6.065-6.065Z" transform="translate(471.464 88.142) rotate(2)" fill="#114886"/>
    <path id="Path_35849" data-name="Path 35849" d="M4423.579,5155.257h13.841a2.846,2.846,0,0,0,1.437-.512,3.224,3.224,0,0,0,.846-1.344V5133.71a2.3,2.3,0,0,0-2.283-1.712h-13.841a5.9,5.9,0,0,0-2.2.458,1.662,1.662,0,0,0-.8,1.255v4.041" transform="translate(-3948.872 -5048.578)" fill="none" stroke="#114886" stroke-width="2"/>
  </g>
</svg>
