<svg xmlns="http://www.w3.org/2000/svg" width="15.486" height="16.184" viewBox="0 0 15.486 16.184">
  <g id="Group_28037" data-name="Group 28037" transform="translate(-4.4 -2.4)">
    <path id="Path_36205" data-name="Path 36205" d="M19.24,4.783H14.985A2.854,2.854,0,0,0,12.177,2.4h-.051A2.854,2.854,0,0,0,9.318,4.783H5.064a.664.664,0,1,0,0,1.327h.97v9.6A2.862,2.862,0,0,0,8.91,18.584h6.433a2.862,2.862,0,0,0,2.876-2.876V6.11h1a.654.654,0,0,0,.664-.664A.64.64,0,0,0,19.24,4.783Zm-7.1-1.055h.051a1.507,1.507,0,0,1,1.447,1.055H10.68A1.528,1.528,0,0,1,12.143,3.727Zm4.8,12a1.533,1.533,0,0,1-1.549,1.549H8.927a1.533,1.533,0,0,1-1.549-1.549V6.11h9.547v9.6h.017Z" fill="#114886"/>
    <path id="Path_36206" data-name="Path 36206" d="M34.964,44.122a.654.654,0,0,0,.664-.664V38.064a.664.664,0,0,0-1.327,0v5.395A.654.654,0,0,0,34.964,44.122Z" transform="translate(-24.812 -29.044)" fill="#114886"/>
    <path id="Path_36207" data-name="Path 36207" d="M58.564,44.122a.654.654,0,0,0,.664-.664V38.064a.664.664,0,1,0-1.327,0v5.395A.676.676,0,0,0,58.564,44.122Z" transform="translate(-44.395 -29.044)" fill="#114886"/>
  </g>
</svg>
