<svg xmlns="http://www.w3.org/2000/svg" width="29.382" height="23.346" viewBox="0 0 29.382 23.346">
  <g id="noun_Folder_2822530" transform="translate(-4.375 -14.375)">
    <g id="Group_27963" data-name="Group 27963" transform="translate(5 15)">
      <path id="Path_36012" data-name="Path 36012" d="M35.747,41.5a.859.859,0,0,0-.667-.3H12.629a1.014,1.014,0,0,0-.939.97l-1.3,11.09a1.245,1.245,0,0,0,.273.939.859.859,0,0,0,.667.3H33.778a1.014,1.014,0,0,0,.939-.97l1.3-11.09A1.245,1.245,0,0,0,35.747,41.5Z" transform="translate(-7.894 -32.405)" fill="none" stroke="#114886" stroke-width="1.25"/>
      <path id="Path_36013" data-name="Path 36013" d="M5.7,34.846,7,23.756a1.955,1.955,0,0,1,1.879-1.788H29.633V21.03a1.053,1.053,0,0,0-.939-1.121H17.3a.559.559,0,0,1-.364-.151L13.12,15.333A.893.893,0,0,0,12.454,15H5.939a.872.872,0,0,0-.636.273,1.293,1.293,0,0,0-.3.818v19a1.053,1.053,0,0,0,.939,1.121h.03A2.1,2.1,0,0,1,5.7,34.846Z" transform="translate(-5 -15)" fill="none" stroke="#114886" stroke-width="1.25"/>
    </g>
  </g>
</svg>
