<svg xmlns="http://www.w3.org/2000/svg" width="14.092" height="14.124" viewBox="0 0 14.092 14.124">
  <g id="noun_edit_958192" transform="translate(-7.684 -6.775)">
    <g id="Group_28036" data-name="Group 28036" transform="translate(7.684 6.775)">
      <path id="Path_36204" data-name="Path 36204" d="M20.35,7.282a1.727,1.727,0,0,0-2.446,0l-8.9,8.881a.3.3,0,0,0-.069.087.017.017,0,0,1-.017.017c-.017.035-.035.052-.035.087v.017L7.7,20.223a.56.56,0,0,0,.121.52.5.5,0,0,0,.364.156.48.48,0,0,0,.156-.017L12.18,19.7H12.2c.035-.017.069-.017.087-.035a.017.017,0,0,0,.017-.017.173.173,0,0,0,.087-.069L21.269,10.7a1.727,1.727,0,0,0,0-2.446ZM8.988,19.581l.642-2.064,1.44,1.44Zm3.053-1.128-1.925-1.908,6.73-6.73,1.925,1.925Zm8.5-8.517L19.5,10.977,17.592,9.069l1.041-1.041a.691.691,0,0,1,.989,0l.937.937A.686.686,0,0,1,20.541,9.936Z" transform="translate(-7.684 -6.775)" fill="#114886"/>
    </g>
  </g>
</svg>
