<svg xmlns="http://www.w3.org/2000/svg" width="28.627" height="27.534" viewBox="0 0 28.627 27.534">
  <g id="Find_Patient" data-name="Find Patient" transform="translate(-607.373 -124.707)">
    <path id="Path_35850" data-name="Path 35850" d="M0,6.62,6.815,0l1.5,1.453L1.5,8.075Z" transform="translate(607.654 143.88) rotate(2)" fill="#114886"/>
    <path id="Path_35851" data-name="Path 35851" d="M22.191,11.1A11.1,11.1,0,1,1,11.1,0,11.1,11.1,0,0,1,22.191,11.1Zm-2.218,0A8.877,8.877,0,1,0,11.1,19.973,8.878,8.878,0,0,0,19.973,11.1Z" transform="translate(613.823 124.707) rotate(2)" fill="#114886"/>
    <g id="Group_27987" data-name="Group 27987" transform="translate(619.325 130.999)">
      <path id="Path_36069" data-name="Path 36069" d="M18.427,10.365H16.1a.64.64,0,0,0-.617.659v4.6c0,.182,0,.267,1.23,1v1.3a.179.179,0,0,0,.172.184h.089v1.618H16.1V17.624a1.94,1.94,0,0,0-1.873-2H11.373a1.94,1.94,0,0,0-1.873,2v2.709h7.765a.3.3,0,0,0,.287-.307V18.1h.089a.179.179,0,0,0,.172-.184v-1.3c1.23-.733,1.231-.812,1.231-.995v-4.6A.64.64,0,0,0,18.427,10.365Zm.042,5.118c-.16.117-.534.351-.928.589h-.554c-.395-.237-.767-.471-.926-.587V11.024a.044.044,0,0,1,.042-.045h2.324a.044.044,0,0,1,.042.045Z" transform="translate(-9.5 -10.365)" fill="#114886"/>
      <ellipse id="Ellipse_33" data-name="Ellipse 33" cx="1.968" cy="2.104" rx="1.968" ry="2.104" transform="translate(1.332 0.466)" fill="#114886"/>
      <path id="Path_36070" data-name="Path 36070" d="M70.45,25.812H69.9v-.584a.06.06,0,0,0-.057-.061h-.632a.06.06,0,0,0-.057.061v.584H68.61a.06.06,0,0,0-.057.061v.676a.06.06,0,0,0,.057.061h.546v.584a.06.06,0,0,0,.057.061h.632a.06.06,0,0,0,.057-.061V26.61h.546a.06.06,0,0,0,.057-.061v-.676A.059.059,0,0,0,70.45,25.812Z" transform="translate(-61.765 -23.349)" fill="#114886"/>
    </g>
  </g>
</svg>
