<svg xmlns="http://www.w3.org/2000/svg" width="21.907" height="26.501" viewBox="0 0 21.907 26.501">
  <g id="Group_27907" data-name="Group 27907" transform="translate(-589.575 -84.316)">
    <path id="Path_35536" data-name="Path 35536" d="M24.844,5H11.063A3.072,3.072,0,0,0,8,8.063V26.438A3.072,3.072,0,0,0,11.063,29.5H24.844a3.072,3.072,0,0,0,3.063-3.063V8.063A3.072,3.072,0,0,0,24.844,5Z" transform="translate(582.575 80.316)" fill="none" stroke="#114886" stroke-width="2"/>
    <path id="Path_35539" data-name="Path 35539" d="M0,0H6.14V1.531H0Z" transform="translate(594.388 88.923)" fill="#114886"/>
    <rect id="Rectangle_29" data-name="Rectangle 29" width="12.079" height="1.531" transform="translate(594.388 92.972)" fill="#114886"/>
    <rect id="Rectangle_30" data-name="Rectangle 30" width="12.079" height="1.531" transform="translate(594.388 96.8)" fill="#114886"/>
    <rect id="Rectangle_31" data-name="Rectangle 31" width="12.079" height="1.531" transform="translate(594.388 100.629)" fill="#114886"/>
    <path id="Path_35538" data-name="Path 35538" d="M0,0H12.079V1.531H0Z" transform="translate(594.388 104.457)" fill="#114886"/>
  </g>
</svg>
