<svg xmlns="http://www.w3.org/2000/svg" width="21.831" height="21.333" viewBox="0 0 21.831 21.333">
  <g id="Group_27916" data-name="Group 27916" transform="translate(-539.385 -312.824)">
    <path id="Path_35828" data-name="Path 35828" d="M29.92,10.365H24.6a1.412,1.412,0,0,0-1.411,1.411v9.838c0,.389,0,.571,2.814,2.131v2.781a.4.4,0,0,0,.394.394h.2v3.463h-2V25.9a4.284,4.284,0,0,0-4.284-4.284H13.784A4.284,4.284,0,0,0,9.5,25.9v5.8H27.262a.657.657,0,0,0,.657-.657v-4.12h.2a.4.4,0,0,0,.394-.394V23.742c2.814-1.568,2.815-1.737,2.815-2.129V11.776A1.413,1.413,0,0,0,29.92,10.365Zm.1,10.955c-.367.25-1.221.752-2.123,1.262H26.626c-.9-.507-1.755-1.007-2.118-1.257V11.776a.1.1,0,0,1,.1-.1H29.92a.1.1,0,0,1,.1.1Z" transform="translate(529.885 302.459)" fill="#646464"/>
    <circle id="Ellipse_1" data-name="Ellipse 1" cx="4.503" cy="4.503" r="4.503" transform="translate(542.433 313.822)" fill="#646464"/>
    <path id="Path_35829" data-name="Path 35829" d="M72.891,26.547H71.642V25.3a.132.132,0,0,0-.131-.131H70.065a.132.132,0,0,0-.131.131v1.249H68.684a.132.132,0,0,0-.131.131v1.446a.132.132,0,0,0,.131.131h1.249v1.249a.132.132,0,0,0,.131.131h1.446a.132.132,0,0,0,.131-.131V28.257h1.249a.132.132,0,0,0,.131-.131V26.679A.131.131,0,0,0,72.891,26.547Z" transform="translate(486.359 291.549)" fill="#646464"/>
  </g>
</svg>
