<svg xmlns="http://www.w3.org/2000/svg" width="24" height="24.001" viewBox="0 0 24 24.001">
  <g id="noun_help_2837128" transform="translate(-34.982 -34.928)">
    <g id="Group_28004" data-name="Group 28004" transform="translate(34.982 34.928)">
      <g id="Group_27999" data-name="Group 27999" transform="translate(0)">
        <g id="Group_27998" data-name="Group 27998">
          <path id="Path_36142" data-name="Path 36142" d="M56.967,46.929a11.055,11.055,0,0,1-.1,1.469c.013-.088.025-.179.035-.267a11,11,0,0,1-.767,2.81c.033-.08.068-.161.1-.241a11.086,11.086,0,0,1-1.419,2.43l.158-.2a11.148,11.148,0,0,1-2,2l.2-.158a11.087,11.087,0,0,1-2.43,1.419l.241-.1a11.107,11.107,0,0,1-2.81.767c.088-.013.179-.025.267-.035a11.263,11.263,0,0,1-2.938,0c.088.013.179.025.267.035a11,11,0,0,1-2.81-.767l.241.1a11.086,11.086,0,0,1-2.43-1.419l.2.158a11.148,11.148,0,0,1-2-2l.158.2a11.087,11.087,0,0,1-1.419-2.43c.033.08.068.161.1.241a11.107,11.107,0,0,1-.767-2.81c.013.088.025.179.035.267a11.263,11.263,0,0,1,0-2.938c-.013.088-.025.179-.035.267a11,11,0,0,1,.767-2.81c-.033.08-.068.161-.1.241a11.087,11.087,0,0,1,1.419-2.43l-.158.2a11.148,11.148,0,0,1,2-2l-.2.158a11.086,11.086,0,0,1,2.43-1.419l-.241.1a11.106,11.106,0,0,1,2.81-.767c-.088.013-.179.025-.267.035a11.262,11.262,0,0,1,2.938,0c-.088-.013-.179-.025-.267-.035a11,11,0,0,1,2.81.767l-.241-.1a11.087,11.087,0,0,1,2.43,1.419l-.2-.158a11.148,11.148,0,0,1,2,2l-.158-.2a11.087,11.087,0,0,1,1.419,2.43c-.033-.08-.068-.161-.1-.241a11.107,11.107,0,0,1,.767,2.81c-.013-.088-.025-.179-.035-.267a11.055,11.055,0,0,1,.1,1.469,1.006,1.006,0,1,0,2.012,0,12.008,12.008,0,0,0-.571-3.665,11.8,11.8,0,0,0-1.6-3.22,12.578,12.578,0,0,0-1.2-1.459,12.821,12.821,0,0,0-1.419-1.245,11.977,11.977,0,0,0-16.4,1.887,12.706,12.706,0,0,0-1.109,1.552,12.416,12.416,0,0,0-.84,1.713,11.794,11.794,0,0,0-.823,3.574A12,12,0,0,0,41.95,57.821a11.546,11.546,0,0,0,3.735,1.034,11.959,11.959,0,0,0,7.146-1.446,12.038,12.038,0,0,0,4.87-5.086,11.752,11.752,0,0,0,1.117-3.451,13.22,13.22,0,0,0,.164-1.942,1.007,1.007,0,0,0-2.015,0Z" transform="translate(-34.982 -34.928)" fill="#fff"/>
        </g>
      </g>
      <g id="Group_28001" data-name="Group 28001" transform="translate(10.992 17.292)">
        <g id="Group_28000" data-name="Group 28000">
          <path id="Path_36143" data-name="Path 36143" d="M471.978,723.362v.2a.761.761,0,0,0,.086.387.91.91,0,0,0,.533.533.736.736,0,0,0,.387.086c.088-.013.179-.025.267-.035a1,1,0,0,0,.445-.259l.158-.2a1.027,1.027,0,0,0,.138-.508v-.2a.761.761,0,0,0-.086-.387.91.91,0,0,0-.533-.533.736.736,0,0,0-.387-.086c-.088.013-.179.025-.267.035a1,1,0,0,0-.445.259l-.158.2a.983.983,0,0,0-.138.508Z" transform="translate(-471.977 -722.355)" fill="#fff"/>
        </g>
      </g>
      <g id="Group_28003" data-name="Group 28003" transform="translate(7.298 4.497)">
        <g id="Group_28002" data-name="Group 28002">
          <path id="Path_36144" data-name="Path 36144" d="M327.109,218.391a3.529,3.529,0,0,1,.033-.488c-.013.088-.025.179-.035.267a3.824,3.824,0,0,1,.257-.943c-.033.08-.068.161-.1.241a3.864,3.864,0,0,1,.48-.825l-.158.2a3.857,3.857,0,0,1,.672-.672l-.2.158a3.864,3.864,0,0,1,.825-.48l-.241.1a3.824,3.824,0,0,1,.943-.257c-.088.013-.179.025-.267.035a3.96,3.96,0,0,1,.976,0c-.088-.013-.179-.025-.267-.035a3.869,3.869,0,0,1,.946.254l-.241-.1a3.865,3.865,0,0,1,.825.48l-.2-.158a3.858,3.858,0,0,1,.672.672l-.158-.2a3.863,3.863,0,0,1,.48.825c-.033-.08-.068-.161-.1-.241a3.731,3.731,0,0,1,.254.946c-.013-.088-.025-.179-.035-.267a3.939,3.939,0,0,1,0,.973c.013-.088.025-.179.035-.267a3.874,3.874,0,0,1-.257.946c.033-.08.068-.161.1-.241a3.846,3.846,0,0,1-.483.828l.158-.2a3.858,3.858,0,0,1-.672.672l.2-.158a4.726,4.726,0,0,1-.86.5,3.213,3.213,0,0,0-.981.729,3.468,3.468,0,0,0-.913,2.327v.571a1.006,1.006,0,1,0,2.012,0,6.989,6.989,0,0,1,.023-.918c-.013.088-.025.179-.035.267a2.481,2.481,0,0,1,.161-.584c-.033.08-.068.161-.1.241a2.508,2.508,0,0,1,.322-.548l-.158.2a2.628,2.628,0,0,1,.428-.425l-.2.158a5.218,5.218,0,0,1,.787-.435,4.823,4.823,0,0,0,.878-.614,4.39,4.39,0,0,0,1.16-1.557,4.788,4.788,0,0,0,.435-2.148,4.868,4.868,0,0,0-.546-2.035,4.7,4.7,0,0,0-6.812-1.665,4.689,4.689,0,0,0-2.043,3.876,1,1,0,1,0,2.01,0Z" transform="translate(-325.1 -213.692)" fill="#fff"/>
        </g>
      </g>
    </g>
  </g>
</svg>
