<svg xmlns="http://www.w3.org/2000/svg" width="27.036" height="27.574" viewBox="0 0 27.036 27.574">
  <g id="home" transform="translate(-0.5 0.565)">
    <path id="Path_36051" data-name="Path 36051" d="M26.272,15.756a.75.75,0,0,1-.533-.218L14.018,3.81,2.3,15.538A.75.75,0,0,1,1.24,14.481L13.493,2.227a.75.75,0,0,1,1.058,0L26.8,14.481a.75.75,0,0,1-.533,1.275Z" transform="translate(0 -2)" fill="#114886" stroke="#114886" stroke-width="1"/>
    <path id="Path_36052" data-name="Path 36052" d="M15,7.79,6,16.823v9.13a1.5,1.5,0,0,0,1.5,1.5h5.252v-7.5h4.5v7.5H22.5a1.5,1.5,0,0,0,1.5-1.5V16.77Z" transform="translate(-0.984 -1.444)" fill="none" stroke="#114886" stroke-width="2"/>
  </g>
</svg>
