<svg xmlns="http://www.w3.org/2000/svg" width="26.635" height="25.5" viewBox="0 0 26.635 25.5">
  <g id="Inbox" transform="translate(-6.25 -8.139)">
    <g id="Group_27983" data-name="Group 27983" transform="translate(6.5 8.389)">
      <path id="Path_36038" data-name="Path 36038" d="M13.156,960.752a.467.467,0,0,0-.4.451v1.5c-.669-.006-1.354-.009-2.018-.009a.463.463,0,0,0-.422.319L6.519,974.768C6.5,978.28,6.5,981.814,6.5,985.3a.468.468,0,0,0,.451.451H32.185a.468.468,0,0,0,.451-.451c0-2.783-.056-7.766-.056-10.608l-3.755-11.678a.463.463,0,0,0-.432-.31H26.374v-1.5a.468.468,0,0,0-.451-.451H13.156Zm.5.9H25.472v3.013a.451.451,0,1,0,.9,0v-1.061h1.69l3.5,10.852H28.223v-2.291a.468.468,0,0,0-.451-.451H11.353a.468.468,0,0,0-.451.451v2.291H7.561l3.5-10.852h1.69v1.061a.451.451,0,1,0,.9,0c0-1.013,0-2,0-3.013ZM11.8,972.618H27.322v1.84h-2.1a.462.462,0,0,0-.357.169c-.464.6-.932,1.19-1.4,1.784h-7.8c-.467-.594-.935-1.187-1.4-1.784a.458.458,0,0,0-.357-.169H11.8Zm-4.4,2.741c2.1,0,4.193,0,6.29,0,.475.587.934,1.188,1.4,1.784a.458.458,0,0,0,.357.169h8.233a.462.462,0,0,0,.357-.169c.47-.592.925-1.2,1.4-1.784,2.105,0,4.192,0,6.3,0v9.491H7.4Z" transform="translate(-6.5 -960.751)" fill="#114886" stroke="#114886" stroke-width="0.5" fill-rule="evenodd"/>
      <path id="Path_36039" data-name="Path 36039" d="M39.59,1025.25a.42.42,0,0,0-.451.451v2.313a.429.429,0,0,0,.451.451H45.2a.421.421,0,0,0,.451-.451V1025.7a.428.428,0,0,0-.451-.451Zm.451.9h4.713v1.412H40.041Z" transform="translate(-29.334 -1005.874)" fill="#114886" stroke="#114886" stroke-width="0.5" fill-rule="evenodd"/>
      <path id="Path_36040" data-name="Path 36040" d="M24.69,978.992a.407.407,0,0,0-.451.425v3.163c0,.558.9.525.9,0v-2.738H38.809v2.738c0,.546.9.529.9,0v-3.163a.407.407,0,0,0-.451-.425Z" transform="translate(-18.91 -973.512)" fill="#114886" stroke="#114886" stroke-width="0.5" fill-rule="evenodd"/>
    </g>
  </g>
</svg>
