<svg xmlns="http://www.w3.org/2000/svg" width="21.249" height="28.618" viewBox="0 0 21.249 28.618">
  <g id="noun_clipboard_812751" transform="translate(-121.825 -9.957)">
    <g id="Group_28015" data-name="Group 28015" transform="translate(122.2 14.49)">
      <g id="Group_28014" data-name="Group 28014" transform="translate(0)">
        <path id="Path_36179" data-name="Path 36179" d="M141.41,147.694v19.774c0,.043,0,.085-.006.127.016-.2,0-.014-.013.033s-.023.078-.036.117c-.047.137.064-.135,0-.005-.023.048-.174.26-.051.1a1.33,1.33,0,0,1-.166.171c-.106.094.12-.085,0,0a1.332,1.332,0,0,1-.138.081c-.127.067.14-.052.005,0-.038.014-.078.025-.117.036s-.081.018-.121.025c.186-.033.047-.009,0-.007H124.124c-.041,0-.188-.02,0,.007-.041-.006-.081-.016-.121-.025s-.078-.023-.117-.036c-.137-.047.134.064.005,0-.048-.023-.26-.174-.1-.051a1.333,1.333,0,0,1-.2-.2c.125.15-.025-.055-.051-.1-.067-.127.052.14,0,.005-.014-.038-.025-.078-.036-.117s-.018-.081-.025-.121c.033.186.009.047.007,0,0-.015,0-.03,0-.045V147.694c0-.043,0-.085.006-.127-.015.186-.006.051,0,.007s.021-.079.033-.119.018-.051.028-.076q-.059.137-.015.043c.023-.048.174-.26.051-.1a1.33,1.33,0,0,1,.166-.171c.106-.094-.12.085,0,0,.033-.023.068-.043.1-.062s.165-.075-.008,0a1.317,1.317,0,0,1,.155-.051c.04-.011.081-.018.121-.025-.186.033-.047.009,0,.007h3.289l-.644-.644V148a.806.806,0,0,0,.8.817h9.711a.781.781,0,0,0,.305-.043.812.812,0,0,0,.545-.754v-1.647l-.644.644H140.7c.053,0,.1,0,.157.006-.186-.015-.051-.006-.007,0s.079.021.119.033.166.071,0-.005a1.315,1.315,0,0,1,.141.077c.034.02.145.106,0-.008.031.025.06.052.089.079s.056.057.082.087c.094.106-.085-.12,0,0,.031.044.143.281.066.095a1.319,1.319,0,0,1,.076.276c-.035-.2-.007-.008-.006.039a.644.644,0,0,0,1.287,0,1.989,1.989,0,0,0-1.544-1.92,4.938,4.938,0,0,0-1.006-.047h-2.662a.65.65,0,0,0-.644.644v1.585c0,.17-.03-.054.045-.151l.231-.231c.1-.076.321-.045.15-.045H127.61c-.144,0,.08-.025.171.045l.231.231c.072.093.045.318.045.164v-1.6a.65.65,0,0,0-.644-.644H124.2a1.987,1.987,0,0,0-1.784,1.081,2.813,2.813,0,0,0-.212,1.307V167.4a2.282,2.282,0,0,0,.212.957,1.966,1.966,0,0,0,1.76,1.081H140.73a1.993,1.993,0,0,0,1.9-1.464,3.778,3.778,0,0,0,.065-.994V147.694a.644.644,0,1,0-1.287,0Z" transform="translate(-122.2 -145.724)" fill="#114886" stroke="#114886" stroke-width="0.75"/>
      </g>
    </g>
    <g id="Group_28017" data-name="Group 28017" transform="translate(126.77 10.34)">
      <g id="Group_28016" data-name="Group 28016" transform="translate(0 0)">
        <path id="Path_36180" data-name="Path 36180" d="M281.852,12.729h-3.124l.644.644v-.564a2.632,2.632,0,0,0-.276-1.18,2.407,2.407,0,0,0-4.313.107,2.627,2.627,0,0,0-.227,1.073v.564l.644-.644h-3.121a.807.807,0,0,0-.794.827V16.79a.8.8,0,0,0,.809.791h9.723a.866.866,0,0,0,.719-.392.892.892,0,0,0,.108-.552V13.523a.649.649,0,0,0-.043-.249.875.875,0,0,0-.537-.517l-.21-.028a.644.644,0,0,0-.455,1.1.707.707,0,0,0,.455.189l-.1,0-.284-.166c-.134-.1-.116-.458-.116-.3v3.205c0,.127-.021-.1.045-.185l.231-.231c.1-.076.321-.045.15-.045h-9.656c-.144,0,.08-.025.171.045l.231.231c.065.084.045.309.045.191V13.556c0-.169.02.187-.116.292l-.284.166c-.049.021-.138,0-.072,0h3.1a.65.65,0,0,0,.644-.644v-.5c0-.071,0-.142,0-.213q0-.042.006-.084c.012-.149-.026.152,0,.006a1.755,1.755,0,0,1,.063-.238q.013-.038.028-.076c-.066.173-.017.043,0,.007a1.759,1.759,0,0,1,.123-.206q.06-.083-.029.034c.025-.031.051-.061.078-.091a1.779,1.779,0,0,1,.173-.165q.079-.064-.036.027c.032-.024.066-.046.1-.067a1.76,1.76,0,0,1,.212-.114c-.181.084.029-.005.075-.019s.321-.062.112-.035a1.783,1.783,0,0,1,.212-.013c.05,0,.1,0,.15.006.167.012-.14-.026.023,0a1.749,1.749,0,0,1,.232.063c.154.051-.125-.06.022.007.043.02.084.042.125.065s.239.166.1.058a1.787,1.787,0,0,1,.2.193q.031.035.061.071c-.106-.127-.009-.006.009.021a1.756,1.756,0,0,1,.134.249c-.073-.16.017.075.028.117s.021.095.03.142c-.031-.17,0-.01,0,.025.005.075,0,.152,0,.228v.5a.65.65,0,0,0,.644.644h3.124a.644.644,0,1,0,0-1.287Z" transform="translate(-271.284 -10.34)" fill="#114886" stroke="#114886" stroke-width="0.75"/>
      </g>
    </g>
    <g id="Group_28019" data-name="Group 28019" transform="translate(131.805 12.153)">
      <g id="Group_28018" data-name="Group 28018" transform="translate(0 0)">
        <path id="Path_36181" data-name="Path 36181" d="M436.215,70.778a.644.644,0,1,0-.644-.644.65.65,0,0,0,.644.644Z" transform="translate(-435.571 -69.491)" fill="#114886" stroke="#114886" stroke-width="0.75"/>
      </g>
    </g>
    <g id="Group_28021" data-name="Group 28021" transform="translate(125.491 21.084)">
      <g id="Group_28020" data-name="Group 28020" transform="translate(0)">
        <path id="Path_36182" data-name="Path 36182" d="M230.211,362.162h12.628a.644.644,0,0,0,0-1.287H230.211a.644.644,0,0,0,0,1.287Z" transform="translate(-229.567 -360.875)" fill="#114886" stroke="#114886" stroke-width="0.75"/>
      </g>
    </g>
    <g id="Group_28023" data-name="Group 28023" transform="translate(125.491 26.071)">
      <g id="Group_28022" data-name="Group 28022" transform="translate(0)">
        <path id="Path_36183" data-name="Path 36183" d="M230.211,524.849h12.628a.644.644,0,0,0,0-1.287H230.211a.644.644,0,0,0,0,1.287Z" transform="translate(-229.567 -523.562)" fill="#114886" stroke="#114886" stroke-width="0.75"/>
      </g>
    </g>
    <g id="Group_28025" data-name="Group 28025" transform="translate(125.491 31.057)">
      <g id="Group_28024" data-name="Group 28024" transform="translate(0)">
        <path id="Path_36184" data-name="Path 36184" d="M230.21,687.537h2.7a.644.644,0,0,0,0-1.287h-2.7a.644.644,0,0,0,0,1.287Z" transform="translate(-229.566 -686.25)" fill="#114886" stroke="#114886" stroke-width="0.75"/>
      </g>
    </g>
    <g id="Group_28027" data-name="Group 28027" transform="translate(131.432 29.334)">
      <g id="Group_28026" data-name="Group 28026">
        <path id="Path_36185" data-name="Path 36185" d="M430.28,630.214l-3.158,3.158L425.7,634.8h.91l-2.107-2.107a.644.644,0,0,0-.91.91l2.107,2.107a.65.65,0,0,0,.91,0l3.158-3.158,1.425-1.425a.644.644,0,0,0-.91-.91Z" transform="translate(-423.405 -630.028)" fill="#114886" stroke="#114886" stroke-width="0.75"/>
      </g>
    </g>
  </g>
</svg>
