<svg xmlns="http://www.w3.org/2000/svg" width="23.751" height="25.967" viewBox="0 0 23.751 25.967">
  <g id="Inventory" transform="translate(-17.037 -557.761)">
    <path id="Path_35878" data-name="Path 35878" d="M25.613,9.467l-8.532-6.4a2.844,2.844,0,0,0-3.413,0l-8.532,6.4A2.844,2.844,0,0,0,4,11.743v12.8a2.844,2.844,0,0,0,2.844,2.844H23.907a2.844,2.844,0,0,0,2.844-2.844v-12.8a2.844,2.844,0,0,0-1.138-2.275ZM14.664,18.852H9.688V13.164h4.977Zm-4.977,7.11V20.274h4.977v5.688Zm6.4,0V20.274h4.977v5.688Zm9.242-1.422a1.424,1.424,0,0,1-1.422,1.422H22.485V20.274a1.422,1.422,0,0,0-1.422-1.422H16.086V13.164a1.422,1.422,0,0,0-1.422-1.422H9.688a1.422,1.422,0,0,0-1.422,1.422v12.8H6.844A1.424,1.424,0,0,1,5.422,24.54v-12.8A1.429,1.429,0,0,1,5.991,10.6l8.532-6.4a1.422,1.422,0,0,1,1.706,0l8.532,6.4a1.429,1.429,0,0,1,.569,1.138Z" transform="translate(13.537 555.844)" fill="#fff" stroke="#fff" stroke-width="1"/>
  </g>
</svg>
