<svg xmlns="http://www.w3.org/2000/svg" width="26.059" height="22.715" viewBox="0 0 26.059 22.715">
  <g id="noun_Letter_2816651" transform="translate(-4.875 -9.564)">
    <rect id="Rectangle_2646" data-name="Rectangle 2646" width="11.743" height="1.032" transform="translate(12.033 19.148)" fill="#114886" stroke="#104581" stroke-width="0.25"/>
    <rect id="Rectangle_2647" data-name="Rectangle 2647" width="11.743" height="1.032" transform="translate(12.033 16.564)" fill="#114886" stroke="#104581" stroke-width="0.25"/>
    <rect id="Rectangle_2648" data-name="Rectangle 2648" width="11.743" height="1.032" transform="translate(12.033 13.98)" fill="#114886" stroke="#104581" stroke-width="0.25"/>
    <path id="Path_36014" data-name="Path 36014" d="M30.612,32.648a1.715,1.715,0,0,0-.583-.736L27.765,30.27v1.275l1.658,1.2a.644.644,0,0,1,0,1.067L19.3,41.16a2.437,2.437,0,0,1-2.8,0L6.385,33.815a.644.644,0,0,1,0-1.067l1.658-1.2V30.27L5.779,31.912a1.715,1.715,0,0,0-.581.731,1.666,1.666,0,0,0-.2.782V46.24a1.69,1.69,0,0,0,1.688,1.688H29.121a1.69,1.69,0,0,0,1.688-1.688V33.426a1.665,1.665,0,0,0-.2-.778ZM29.121,46.9H6.688a.656.656,0,0,1-.656-.656V34.835l9.866,7.16a3.448,3.448,0,0,0,4.012,0l9.866-7.16V46.24a.657.657,0,0,1-.656.656Z" transform="translate(0 -15.774)" fill="#114886" stroke="#104581" stroke-width="0.25"/>
    <path id="Path_36015" data-name="Path 36015" d="M41.1,9.564Z" transform="translate(-24.479)" fill="#114886" stroke="#104581" stroke-width="0.25"/>
    <path id="Path_36016" data-name="Path 36016" d="M20.244,17.7H35.837v7.839l1.032-.749V17.188a.516.516,0,0,0-.516-.516H19.728a.516.516,0,0,0-.516.516v7.606l1.032.749Z" transform="translate(-10.136 -6.075)" fill="#114886" stroke="#104581" stroke-width="0.25"/>
  </g>
</svg>
