<svg xmlns="http://www.w3.org/2000/svg" width="14.163" height="25.803" viewBox="0 0 14.163 25.803">
  <g id="Main_Portal" data-name="Main Portal" transform="translate(1473.6 428)">
    <path id="Path_36061" data-name="Path 36061" d="M66.991,4.1c-2.4,0-3.968,2.561-4.842,5.965h2.512c.764-2.673,1.784-4.08,2.366-4.08.692,0,2.075,2.11,2.767,6.106l-10.047-.028c-.655,0-1.238.422-1.238.929a1.1,1.1,0,0,0,1.2.957l10.3.028c.073.647.109,1.351.146,2.082H59.711c-.692.028-1.238.422-1.238.929a1.1,1.1,0,0,0,1.2.957l10.448.028c-.036.732-.073,1.435-.146,2.082l-10.339-.028h0c-.655,0-1.238.422-1.238.929a1.1,1.1,0,0,0,1.2.957l10.12.028c-.692,3.968-2.111,6.078-2.767,6.078-.546,0-1.6-1.407-2.366-4.08H62.077c.874,3.433,2.439,5.965,4.842,5.965,3.859,0,5.643-6.7,5.643-12.916C72.634,10.8,70.886,4.1,66.991,4.1Z" transform="translate(-1532 -432.1)" fill="#114886"/>
  </g>
</svg>
