<svg xmlns="http://www.w3.org/2000/svg" width="25.968" height="24" viewBox="0 0 25.968 24">
  <g id="Group_27966" data-name="Group 27966" transform="translate(-1030 -88)">
    <g id="noun_message_1602031" transform="translate(1027.5 81.9)">
      <path id="Path_36017" data-name="Path 36017" d="M9.334,30.1a1.64,1.64,0,0,1-1.613-1.613V24.25H4.6a2.123,2.123,0,0,1-2.1-2.1V8.2A2.123,2.123,0,0,1,4.6,6.1H26.363a2.123,2.123,0,0,1,2.1,2.1V22.146a2.123,2.123,0,0,1-2.1,2.1H16.195l-5.74,5.412A1.694,1.694,0,0,1,9.334,30.1ZM4.6,8.068a.129.129,0,0,0-.137.137V22.146a.129.129,0,0,0,.137.137H8.732a.98.98,0,0,1,.984.984V27.64l5.44-5.112a1.079,1.079,0,0,1,.683-.273H26.391a.129.129,0,0,0,.137-.137V8.177a.129.129,0,0,0-.137-.137H4.6Z" transform="translate(0 0)" fill="#114886"/>
    </g>
    <g id="Group_27965" data-name="Group 27965" transform="translate(-1 1)">
      <circle id="Ellipse_28" data-name="Ellipse 28" cx="2" cy="2" r="2" transform="translate(1036 93)" fill="#114886"/>
      <circle id="Ellipse_29" data-name="Ellipse 29" cx="2" cy="2" r="2" transform="translate(1042 93)" fill="#114886"/>
      <circle id="Ellipse_30" data-name="Ellipse 30" cx="2" cy="2" r="2" transform="translate(1048 93)" fill="#114886"/>
    </g>
  </g>
</svg>
