<svg xmlns="http://www.w3.org/2000/svg" width="28.35" height="22.68" viewBox="0 0 28.35 22.68">
  <g id="New_Folder" data-name="New Folder" transform="translate(-1 -4)">
    <g id="Group_27981" data-name="Group 27981" transform="translate(1 4)">
      <path id="Path_36035" data-name="Path 36035" d="M28.4,8.725h-1.89L26.028,6.1a.944.944,0,0,0-.945-.945H13.523l-.372-.694A.946.946,0,0,0,12.34,4H1.945A.945.945,0,0,0,1,4.945v20.79a.945.945,0,0,0,.945.945H28.4a.944.944,0,0,0,.945-.945V9.67A.944.944,0,0,0,28.4,8.725ZM24.138,7.042l.487,1.683H15.71L14.657,7.042ZM27.46,24.79H2.89V5.89H11.8l2.56,4.266a.946.946,0,0,0,.81.459H27.46Z" transform="translate(-1 -4)" fill="#114886"/>
    </g>
  </g>
</svg>
