<svg xmlns="http://www.w3.org/2000/svg" width="22.793" height="25.848" viewBox="0 0 22.793 25.848">
  <g id="Orders" transform="translate(-18.155 -341.711)">
    <path id="Path_35881" data-name="Path 35881" d="M82.316,199a3.316,3.316,0,1,0,3.316,3.316h0A3.33,3.33,0,0,0,82.316,199Zm2.147,3.316a2.153,2.153,0,1,1-2.153-2.153,2.159,2.159,0,0,1,2.153,2.153Z" transform="translate(-60.345 152.316)" fill="#114886" stroke="#114886" stroke-width="1"/>
    <path id="Path_35882" data-name="Path 35882" d="M221.921,215H210.082a.582.582,0,0,0,0,1.164h11.839a.582.582,0,1,0,0-1.164Z" transform="translate(-182.305 137.247)" fill="#114886" stroke="#114886" stroke-width="1.5"/>
    <path id="Path_35883" data-name="Path 35883" d="M210.082,278.164h6.376a.582.582,0,0,0,0-1.164h-6.376a.582.582,0,0,0,0,1.164Z" transform="translate(-182.305 78.854)" fill="#114886" stroke="#114886" stroke-width="1.5"/>
    <path id="Path_35884" data-name="Path 35884" d="M82.316,42.5a3.316,3.316,0,1,0,3.316,3.316h0A3.322,3.322,0,0,0,82.316,42.5Zm2.147,3.31a2.153,2.153,0,1,1-2.153-2.153,2.159,2.159,0,0,1,2.153,2.153Z" transform="translate(-60.345 299.711)" fill="#114886" stroke="#114886" stroke-width="1"/>
    <path id="Path_35885" data-name="Path 35885" d="M210.082,59.164h11.839a.582.582,0,1,0,0-1.164H210.082a.582.582,0,0,0,0,1.164Z" transform="translate(-182.305 285.113)" fill="#114886" stroke="#114886" stroke-width="1.5"/>
    <path id="Path_35886" data-name="Path 35886" d="M210.082,122.164h6.376a.582.582,0,1,0,0-1.164h-6.376a.582.582,0,1,0,0,1.164Z" transform="translate(-182.305 225.778)" fill="#114886" stroke="#114886" stroke-width="1.5"/>
    <path id="Path_35887" data-name="Path 35887" d="M82.316,355.6a3.316,3.316,0,1,0,3.316,3.316h0A3.322,3.322,0,0,0,82.316,355.6Zm2.147,3.316a2.153,2.153,0,1,1-2.153-2.153,2.159,2.159,0,0,1,2.153,2.153Z" transform="translate(-60.345 4.827)" fill="#114886" stroke="#114886" stroke-width="1"/>
    <path id="Path_35888" data-name="Path 35888" d="M221.921,371H210.082a.582.582,0,1,0,0,1.164h11.839a.582.582,0,1,0,0-1.164Z" transform="translate(-182.305 -9.677)" fill="#114886" stroke="#114886" stroke-width="1.5"/>
    <path id="Path_35889" data-name="Path 35889" d="M216.458,434h-6.376a.582.582,0,1,0,0,1.164h6.376a.582.582,0,1,0,0-1.164Z" transform="translate(-182.305 -69.012)" fill="#114886" stroke="#114886" stroke-width="1.5"/>
  </g>
</svg>
