<svg xmlns="http://www.w3.org/2000/svg" width="21.831" height="21.333" viewBox="0 0 21.831 21.333">
  <path id="Path_35828" data-name="Path 35828" d="M29.92,10.365H24.6a1.412,1.412,0,0,0-1.411,1.411v9.838c0,.389,0,.571,2.814,2.131v2.781a.4.4,0,0,0,.394.394h.2v3.463h-2V25.9a4.284,4.284,0,0,0-4.284-4.284H13.784A4.284,4.284,0,0,0,9.5,25.9v5.8H27.262a.657.657,0,0,0,.657-.657v-4.12h.2a.4.4,0,0,0,.394-.394V23.742c2.814-1.568,2.815-1.737,2.815-2.129V11.776A1.413,1.413,0,0,0,29.92,10.365Zm.1,10.955c-.367.25-1.221.752-2.123,1.262H26.626c-.9-.507-1.755-1.007-2.118-1.257V11.776a.1.1,0,0,1,.1-.1H29.92a.1.1,0,0,1,.1.1Z" transform="translate(-9.5 -10.365)" fill="#646464"/>
</svg>
