<svg xmlns="http://www.w3.org/2000/svg" width="25.623" height="31.653" viewBox="0 0 25.623 31.653">
  <g id="Group_27905" data-name="Group 27905" transform="translate(-323.252 -80.576)">
    <path id="Path_35828" data-name="Path 35828" d="M30.311,10.365H24.6a1.412,1.412,0,0,0-1.411,1.411v9.838c0,.389,0,.571,2.814,2.131v2.781a.4.4,0,0,0,.394.394h.2v3.463h-2V25.9a4.284,4.284,0,0,0-4.284-4.284H13.784A4.284,4.284,0,0,0,9.5,25.9v5.8H27.262a.657.657,0,0,0,.657-.657v-4.12h.2a.4.4,0,0,0,.394-.394V23.742c2.814-1.568,2.815-1.737,2.815-2.129V11.776C31.331,11,31.089,10.365,30.311,10.365ZM30.016,21.32c-.367.25-1.221.752-2.123,1.262H26.626c-.9-.507-1.755-1.007-2.118-1.257V11.776a.1.1,0,0,1,.1-.1H29.92a.1.1,0,0,1,.1.1Z" transform="translate(317.544 75.899)" fill="#114886"/>
    <circle id="Ellipse_1" data-name="Ellipse 1" cx="4.503" cy="4.503" r="4.503" transform="translate(330.091 86.313)" fill="none" stroke="#114886" stroke-width="2"/>
    <path id="Path_35829" data-name="Path 35829" d="M72.891,26.547H71.642V25.3a.132.132,0,0,0-.131-.131H70.065a.132.132,0,0,0-.131.131v1.249H68.684a.132.132,0,0,0-.131.131v1.446a.132.132,0,0,0,.131.131h1.249v1.249a.132.132,0,0,0,.131.131h1.446a.132.132,0,0,0,.131-.131V28.257h1.249a.132.132,0,0,0,.131-.131V26.679A.131.131,0,0,0,72.891,26.547Z" transform="translate(274.018 64.041)" fill="#114886"/>
    <path id="Path_35852" data-name="Path 35852" d="M42.869,9.229H19.749a.413.413,0,0,0-.413.413V40.469a.413.413,0,0,0,.413.413h23.12a.413.413,0,0,0,.413-.413V9.642A.413.413,0,0,0,42.869,9.229Zm-15.821,10.7a1.751,1.751,0,0,1,.755-.51,7.3,7.3,0,0,0,1.727-.762c.062-.071.125-.147.189-.231a.015.015,0,0,1,0,0,2.141,2.141,0,0,0,.088-.329s0,.01,0,.026a.893.893,0,0,0,0-.27l0,0a3.138,3.138,0,0,1-.465-.968.468.468,0,0,1-.218-.38,1.5,1.5,0,0,1-.057-.626,2.527,2.527,0,0,1-.123-1.208s.292-1.6,1.654-1.832a2.841,2.841,0,0,1,1.867.184,1.519,1.519,0,0,1,.964,1,2.32,2.32,0,0,1,.108,1.727c.058.092.1.274-.031.63a1.651,1.651,0,0,1-.29.657,3.238,3.238,0,0,1-.49.884l.015-.016a1.24,1.24,0,0,0,0,.174c.007-.031.01-.049.01-.049a2.857,2.857,0,0,0,.084.365h0l.01.035v0c0,.011.01.023.016.036.058.113.25.334.878.556,0,0,1.684.531,1.959,1.143a2.65,2.65,0,0,1,.7,2.52s-.008.153-.316.346a14.445,14.445,0,0,1-4.983.731,14.721,14.721,0,0,1-4.68-.853s-.255-.062-.265-.653A5.368,5.368,0,0,1,27.048,19.927ZM39.579,37.357H23.038a.826.826,0,0,1,0-1.651H39.579a.826.826,0,0,1,0,1.651Zm0-4.4H23.038a.826.826,0,1,1,0-1.651H39.579a.826.826,0,0,1,0,1.651Zm0-4.4H23.038a.826.826,0,0,1,0-1.651H39.579a.826.826,0,0,1,0,1.651Z" transform="translate(303.916 71.347)" fill="none"/>
    <path id="Path_35858" data-name="Path 35858" d="M48.223,78.489H27.877a1.26,1.26,0,0,0,0,2.473H48.223a1.26,1.26,0,0,0,0-2.473Z" transform="translate(299.267 31.036)" fill="#114886"/>
  </g>
</svg>
