<svg xmlns="http://www.w3.org/2000/svg" width="24.356" height="28.843" viewBox="0 0 24.356 28.843">
  <g id="noun_Document_1212456" transform="translate(-12 -5)">
    <path id="Path_36029" data-name="Path 36029" d="M27.961,39.923h3.2a.961.961,0,0,0,0-1.923h-3.2a.961.961,0,0,0,0,1.923Z" transform="translate(-10.193 -22.424)" fill="#114886"/>
    <path id="Path_36030" data-name="Path 36030" d="M32.831,8.2h-.336A3.525,3.525,0,0,0,28.985,5H18.692a.961.961,0,0,0-.686.288l-5.73,5.849A.961.961,0,0,0,12,11.81V26.472a3.525,3.525,0,0,0,3.2,3.509v.337a3.525,3.525,0,0,0,3.525,3.525h14.1a3.525,3.525,0,0,0,3.525-3.525V11.73A3.525,3.525,0,0,0,32.831,8.2Zm-15.062.071v2.493a.32.32,0,0,1-.32.32H15.012Zm-3.846,18.2V13.012h3.525a2.243,2.243,0,0,0,2.243-2.243V6.923h9.294a1.6,1.6,0,0,1,1.6,1.6V26.472a1.6,1.6,0,0,1-1.6,1.6H15.525A1.6,1.6,0,0,1,13.923,26.472Zm20.51,3.846a1.6,1.6,0,0,1-1.6,1.6H18.73a1.6,1.6,0,0,1-1.6-1.6V30H28.985a3.525,3.525,0,0,0,3.525-3.525V10.128h.32a1.6,1.6,0,0,1,1.6,1.6Z" transform="translate(0)" fill="#114886"/>
    <path id="Path_36031" data-name="Path 36031" d="M27.961,51.923h8.973a.961.961,0,0,0,0-1.923H27.961a.961.961,0,0,0,0,1.923Z" transform="translate(-10.193 -30.579)" fill="#114886"/>
    <path id="Path_36032" data-name="Path 36032" d="M27.961,63.923h8.973a.961.961,0,0,0,0-1.923H27.961a.961.961,0,0,0,0,1.923Z" transform="translate(-10.193 -38.733)" fill="#114886"/>
  </g>
</svg>
