<svg xmlns="http://www.w3.org/2000/svg" width="32.128" height="19.556" viewBox="0 0 32.128 19.556">
  <g id="Post_Charges" data-name="Post  Charges" transform="translate(-53 -74.966)">
    <g id="Group_27995" data-name="Group 27995" transform="translate(49 -899.396)">
      <path id="Path_36132" data-name="Path 36132" d="M4.7,974.362a.715.715,0,0,0-.7.7v16.064a.727.727,0,0,0,.7.709.727.727,0,0,0,.7-.709V975.759H34.033a.7.7,0,1,0,0-1.4H4.7Zm2.794,2.794a.742.742,0,0,0-.7.7V993.22a.726.726,0,0,0,.7.7H35.43a.726.726,0,0,0,.7-.7V977.854a.726.726,0,0,0-.7-.7H7.492Zm.7,1.4H16.1a9.568,9.568,0,0,0,.011,13.969H8.191V978.552Zm10.346,0h5.849a8.027,8.027,0,0,1-.022,13.969H18.558a8.027,8.027,0,0,1-.022-13.969Zm8.283,0h7.912v13.969H26.808a9.568,9.568,0,0,0,.011-13.969ZM21.526,979.6a.7.7,0,0,0-.7.7v.469a2.76,2.76,0,0,0-2.139,2.717,2.4,2.4,0,0,0,.949,1.943,8.279,8.279,0,0,0,1.528.775c.824.344,1.675.715,1.681,1.473a1.26,1.26,0,0,1-1.386,1.4A1.752,1.752,0,0,1,20,988.058a.713.713,0,0,0-.949-.371.731.731,0,0,0-.284.993,3.192,3.192,0,0,0,2.063,1.713v.382a.7.7,0,0,0,1.4,0v-.415a2.765,2.765,0,0,0,2.008-2.685,2.41,2.41,0,0,0-.939-1.953,8.357,8.357,0,0,0-1.539-.775c-.82-.343-1.675-.714-1.681-1.462a1.26,1.26,0,0,1,1.386-1.4,1.741,1.741,0,0,1,1.462,1,.694.694,0,1,0,1.233-.622,3.21,3.21,0,0,0-1.932-1.67v-.5A.7.7,0,0,0,21.526,979.6Z" transform="translate(0 0)" fill="#114886"/>
    </g>
  </g>
</svg>
