<svg xmlns="http://www.w3.org/2000/svg" width="23.751" height="25.967" viewBox="0 0 23.751 25.967">
  <g id="Group_28012" data-name="Group 28012" transform="translate(-17.037 -594.761)">
    <path id="Path_36177" data-name="Path 36177" d="M25.613,9.467l-8.532-6.4a2.844,2.844,0,0,0-3.413,0l-8.532,6.4A2.844,2.844,0,0,0,4,11.743v12.8a2.844,2.844,0,0,0,2.844,2.844H23.907a2.844,2.844,0,0,0,2.844-2.844v-12.8a2.844,2.844,0,0,0-1.138-2.275ZM25.329,24.54c0,.785-1.422,1.422-1.422,1.422H6.844s-1.421-.637-1.422-1.422v-12.8A1.429,1.429,0,0,1,5.991,10.6l8.532-6.4a1.422,1.422,0,0,1,1.706,0l8.532,6.4a1.429,1.429,0,0,1,.569,1.138Z" transform="translate(13.537 592.844)" fill="#fff" stroke="#fff" stroke-width="1"/>
    <g id="Group_28011" data-name="Group 28011" transform="translate(1 2)">
      <rect id="Rectangle_2661" data-name="Rectangle 2661" width="10" height="2" transform="translate(23 606)" fill="#fff"/>
      <rect id="Rectangle_2662" data-name="Rectangle 2662" width="10" height="2" transform="translate(29 602) rotate(90)" fill="#fff"/>
    </g>
  </g>
</svg>
