<svg xmlns="http://www.w3.org/2000/svg" width="14.125" height="26.071" viewBox="0 0 14.125 26.071">
  <g id="noun_Medicine_56008" transform="translate(-19.5 -52.428)">
    <g id="Group_27916" data-name="Group 27916">
      <path id="Path_35988" data-name="Path 35988" d="M35.306,2.872V.816A.31.31,0,0,0,34.99.5H26.135a.31.31,0,0,0-.316.316V2.872a.31.31,0,0,0,.316.316H34.99a.31.31,0,0,0,.317-.316m2.049,20.439L36.6,25.4l-.012,0a.885.885,0,0,1-1.646-.6l-.012,0,.76-2.088a.889.889,0,1,1,1.671.608m0-7.876a.889.889,0,0,1-1.03.721l-2.189-.386,0-.013a.885.885,0,0,1,.3-1.725l0-.013,2.189.386a.889.889,0,0,1,.721,1.03m-4.62,1.926a.889.889,0,0,1-1.089-.629l-.575-2.147.013,0a.885.885,0,0,1,1.692-.454l.012,0,.575,2.147a.889.889,0,0,1-.629,1.089M30.46,16.229,32.032,17.8l-.009.009a.885.885,0,0,1-1.239,1.239l-.009.009L29.2,17.486a.889.889,0,1,1,1.257-1.257M29.3,15.723l-1.275,1.821-.011-.007a.885.885,0,0,1-1.435-1.005l-.011-.007L27.847,14.7a.889.889,0,0,1,1.457,1.02m-1.8-1.494.006.011-1.925,1.111a.889.889,0,1,1-.889-1.54L26.621,12.7l.006.011a.885.885,0,0,1,.876,1.518M23.88,18.673l.538-2.156a.889.889,0,1,1,1.725.43L25.605,19.1l-.013,0a.885.885,0,0,1-1.7-.424Zm.559,3.189a.889.889,0,0,1,1.078.648l.538,2.156-.012,0a.885.885,0,0,1-1.7.424l-.013,0-.538-2.156a.889.889,0,0,1,.648-1.078M26.978,25.6l-.939-2.014a.889.889,0,0,1,1.612-.751l.939,2.014-.012.006a.885.885,0,0,1-1.588.741Zm-.9-6.534a.889.889,0,0,1,.858-.92l2.221-.077v.013a.885.885,0,0,1,.061,1.751v.013L27,19.924a.889.889,0,0,1-.92-.857m-.756,2.69a.885.885,0,0,1,.3-1.726l0-.013,2.189.386a.889.889,0,0,1-.309,1.751l-2.189-.386Zm3.155,1-.012,0,.65-2.125a.889.889,0,1,1,1.7.52l-.649,2.125-.012,0a.885.885,0,0,1-1.676-.512m.467,2.225a.888.888,0,0,1,.857-.919l2.221-.078V24a.885.885,0,0,1,.061,1.751v.013l-2.221.078a.889.889,0,0,1-.919-.857m2.427-5.267-.007-.011,1.821-1.275a.889.889,0,0,1,1.02,1.456l-1.821,1.275-.007-.011a.885.885,0,0,1-1.005-1.435M36.637,18.4a.885.885,0,0,1-1.47.955l-.011.007-1.211-1.864a.889.889,0,0,1,1.491-.969l1.21,1.864Zm.092,3.209,0,.013L34.542,22a.889.889,0,1,1-.309-1.751l2.189-.386,0,.013a.885.885,0,0,1,.3,1.726m-3.516,3.06L31.97,22.823a.889.889,0,1,1,1.475-.995l1.243,1.843-.011.007a.885.885,0,0,1-1.453.98Zm4.412.64V10.759s-.013-3.555-3-4.7V4.637h-.474V3.478H26.978v1.16H26.5V6.123a4.56,4.56,0,0,0-3,4.637V25.306a1.239,1.239,0,0,0,1.265,1.265H36.36a1.239,1.239,0,0,0,1.265-1.265" transform="translate(-4 51.928)" fill="#114886"/>
    </g>
  </g>
</svg>
