<svg xmlns="http://www.w3.org/2000/svg" width="18.959" height="18.959" viewBox="0 0 18.959 18.959">
  <path id="Path_35839" data-name="Path 35839" d="M14.48,5a9.48,9.48,0,1,0,9.48,9.48A9.489,9.489,0,0,0,14.48,5Zm0,1.264A8.216,8.216,0,1,1,6.264,14.48,8.206,8.206,0,0,1,14.48,6.264Zm0,1.053a7.162,7.162,0,1,0,7.162,7.162A7.172,7.172,0,0,0,14.48,7.317Zm0,1.264a5.9,5.9,0,1,1-5.9,5.9A5.889,5.889,0,0,1,14.48,8.581Zm0,1.685a.632.632,0,1,0,.632.632A.632.632,0,0,0,14.48,10.266Zm-1.119,1.9a.633.633,0,1,0,.066,1.264h.421v4.213H13.36a.633.633,0,1,0,.066,1.264h2.107a.632.632,0,1,0,0-1.264h-.421V12.794a.657.657,0,0,0-.632-.632Z" transform="translate(-5 -5)" fill="#00d1b8"/>
</svg>
