<svg xmlns="http://www.w3.org/2000/svg" width="22.805" height="26.107" viewBox="0 0 22.805 26.107">
  <g id="Referring_" data-name="Referring " transform="translate(-1046.038 -83.867)">
    <path id="Path_35845" data-name="Path 35845" d="M11.634,5a.838.838,0,1,0,.087,1.674h2.232a.837.837,0,1,0,0-1.674H11.721A.837.837,0,0,0,11.634,5ZM21.676,5a.838.838,0,1,0,.087,1.674h1.395v8.369a5.3,5.3,0,1,1-10.6,0V8.623a.837.837,0,1,0-1.674,0v6.416a6.975,6.975,0,0,0,6.137,6.921v1.168a6.974,6.974,0,1,0,13.948,0V20.191a2.511,2.511,0,1,0-1.674,0v2.938a5.3,5.3,0,0,1-10.6,0V21.961a6.975,6.975,0,0,0,6.137-6.921V5.834A.837.837,0,0,0,24,5H21.763A.837.837,0,0,0,21.676,5Zm8.456,11.995a.837.837,0,1,1-.837.837A.824.824,0,0,1,30.132,16.992Z" transform="translate(1035.7 79.371)" fill="#008e7d" stroke="#008e7d" stroke-width="1"/>
  </g>
</svg>
