<svg xmlns="http://www.w3.org/2000/svg" width="16.167" height="17.078" viewBox="0 0 16.167 17.078">
  <g id="Group_27911" data-name="Group 27911" transform="translate(-456.413 -154.964)">
    <path id="Path_35522" data-name="Path 35522" d="M19.582,5.335A7.617,7.617,0,0,0,14.4,7.416l.039-1.855a.712.712,0,1,0-1.424-.03l-.08,3.806a.712.712,0,0,0,.723.728l3.806-.08a.712.712,0,0,0-.014-1.424h-.016L15.225,8.6a6.328,6.328,0,0,1,4.357-1.842A6.2,6.2,0,0,1,25.7,12.874a.712.712,0,1,0,1.424,0A7.646,7.646,0,0,0,19.582,5.335Z" transform="translate(444.96 150.63)" fill="#e1faff" stroke="#e1faff" stroke-width="1"/>
    <path id="Path_35523" data-name="Path 35523" d="M14.936,54.25a7.617,7.617,0,0,0,5.178-2.081l-.039,1.855a.712.712,0,0,0,.7.726h.016a.712.712,0,0,0,.712-.7l.08-3.805a.712.712,0,0,0-.208-.509.7.7,0,0,0-.514-.217l-3.806.082a.712.712,0,1,0,.03,1.424l2.213-.043a6.328,6.328,0,0,1-4.357,1.842,6.2,6.2,0,0,1-6.112-6.114.712.712,0,1,0-1.424,0A7.645,7.645,0,0,0,14.936,54.25Z" transform="translate(449.513 116.792)" fill="#e1faff" stroke="#e1faff" stroke-width="1"/>
  </g>
</svg>
