<svg xmlns="http://www.w3.org/2000/svg" width="17.296" height="29.961" viewBox="0 0 17.296 29.961">
  <g id="Group_28010" data-name="Group 28010" transform="translate(-588.75 -83.626)">
    <path id="Path_36176" data-name="Path 36176" d="M2.7,0A2.7,2.7,0,1,1,0,2.7,2.7,2.7,0,0,1,2.7,0Z" transform="translate(594.199 84.376)" fill="none" stroke="#114887" stroke-width="1.5"/>
    <path id="Path_36174" data-name="Path 36174" d="M41.942,57.46H37.72V49.935a2.533,2.533,0,0,0-5.066,0v8.611a2.533,2.533,0,0,0,2.533,2.533l.084,0,.086,0h5.5v6.106a1.447,1.447,0,0,0,2.894,0V59.27A1.809,1.809,0,0,0,41.942,57.46Z" transform="translate(561.545 44.205)" fill="none" stroke="#114887" stroke-width="1.5"/>
    <path id="Union_1" data-name="Union 1" d="M.5,15.852v-1h9.87v1Zm-.5-.04V0H.439V15.812Z" transform="translate(589.5 94.148)" fill="none" stroke="#114887" stroke-width="1.5"/>
  </g>
</svg>
