<svg xmlns="http://www.w3.org/2000/svg" width="25.14" height="20.855" viewBox="0 0 25.14 20.855">
  <g id="Group_27914" data-name="Group 27914" transform="translate(-112.806 -252.155)">
    <path id="Path_35827" data-name="Path 35827" d="M25.521,49.852l-.027-.024,0,0a1.661,1.661,0,0,0-.991-.4c-.046,0-.092-.006-.138-.006H2.778a1.072,1.072,0,0,0-.138.006,1.661,1.661,0,0,0-.991.4l0,0-.027.024A1.775,1.775,0,0,0,1,51.2V68.5a1.78,1.78,0,0,0,1.778,1.779H24.361A1.78,1.78,0,0,0,26.14,68.5V51.2a1.775,1.775,0,0,0-.619-1.347Zm-15.872,2.1a.69.69,0,1,1-.69-.69.69.69,0,0,1,.69.69Zm-2.28,0a.69.69,0,1,1-.69-.69.69.69,0,0,1,.69.69Zm-2.279,0a.69.69,0,1,1-.69-.69.69.69,0,0,1,.69.69Zm19.274,17.34H2.778a.793.793,0,0,1-.793-.793V54.476H25.154V68.5a.793.793,0,0,1-.793.793Z" transform="translate(111.806 202.735)"/>
    <path id="Path_35838" data-name="Path 35838" d="M0,0H4.69V8.439H0Z" transform="translate(130.163 260.614)"/>
    <rect id="Rectangle_1678" data-name="Rectangle 1678" width="4.69" height="8.439" transform="translate(123.381 260.614)"/>
    <rect id="Rectangle_1679" data-name="Rectangle 1679" width="4.69" height="8.439" transform="translate(116.598 260.614)"/>
  </g>
</svg>
