<svg xmlns="http://www.w3.org/2000/svg" width="24.553" height="30.458" viewBox="0 0 24.553 30.458">
  <g id="Scan" transform="translate(-16.209 -484.404)">
    <path id="Path_35875" data-name="Path 35875" d="M23.5,45.716h2.99l1.369-1.851,2.124,1.594L32.246,42.1l1.984,4.7,2.263-1.737h2.1" transform="translate(-1.521 450.127)" fill="none" stroke="#114886" stroke-linejoin="round" stroke-miterlimit="10" stroke-width="2"/>
    <g id="Path_35880" data-name="Path 35880" transform="translate(18.011 484.404)" fill="none">
      <path d="M11.375,0A11.375,11.375,0,1,1,0,11.375,11.375,11.375,0,0,1,11.375,0Z" stroke="none"/>
      <path d="M 11.37543392181396 3.000003814697266 C 6.757204055786133 3.000003814697266 3.000003814697266 6.757204055786133 3.000003814697266 11.37543392181396 C 3.000003814697266 15.9936637878418 6.757204055786133 19.75086402893066 11.37543392181396 19.75086402893066 C 15.9936637878418 19.75086402893066 19.75086402893066 15.9936637878418 19.75086402893066 11.37543392181396 C 19.75086402893066 6.757204055786133 15.9936637878418 3.000003814697266 11.37543392181396 3.000003814697266 M 11.37543392181396 3.814697265625e-06 C 17.65791320800781 3.814697265625e-06 22.75086402893066 5.092954635620117 22.75086402893066 11.37543392181396 C 22.75086402893066 17.65791320800781 17.65791320800781 22.75086402893066 11.37543392181396 22.75086402893066 C 5.092954635620117 22.75086402893066 3.814697265625e-06 17.65791320800781 3.814697265625e-06 11.37543392181396 C 3.814697265625e-06 5.092954635620117 5.092954635620117 3.814697265625e-06 11.37543392181396 3.814697265625e-06 Z" stroke="none" fill="#114886"/>
    </g>
    <rect id="Rectangle_2566" data-name="Rectangle 2566" width="9.48" height="3.792" transform="translate(16.209 512.909) rotate(-59)" fill="#114886"/>
  </g>
</svg>
