<svg xmlns="http://www.w3.org/2000/svg" width="25.751" height="25.751" viewBox="0 0 25.751 25.751">
  <g id="Schedule" transform="translate(-15.247 -139.745)">
    <circle id="Ellipse_2" data-name="Ellipse 2" cx="11.375" cy="11.375" r="11.375" transform="translate(16.747 141.245)" fill="none" stroke="#104581" stroke-miterlimit="10" stroke-width="3"/>
    <path id="Path_35869" data-name="Path 35869" d="M70.079,41.151l-3.612-2.043V31.65a.983.983,0,1,0-1.967,0v8.031c0,.013,0,.025,0,.037a.986.986,0,0,0,.01.1c0,.031.009.062.016.092s.017.059.028.089a.958.958,0,0,0,.035.091c.013.028.029.055.044.082s.032.054.05.08.04.05.062.075.041.047.064.068.047.041.072.06a1,1,0,0,0,.083.059c.011.007.02.016.031.022l4.112,2.325a.984.984,0,0,0,.968-1.712Z" transform="translate(-37.361 114.315)" fill="#114886"/>
  </g>
</svg>
