<svg xmlns="http://www.w3.org/2000/svg" width="26.647" height="26.647" viewBox="0 0 26.647 26.647">
  <g id="Group_27908" data-name="Group 27908" transform="translate(-684.37 -83.368)">
    <path id="Path_35540" data-name="Path 35540" d="M14.764,27.087A12.323,12.323,0,1,1,27.087,14.764,12.337,12.337,0,0,1,14.764,27.087Z" transform="translate(682.929 81.927)" fill="none" stroke="#114886" stroke-width="2"/>
    <path id="Path_35541" data-name="Path 35541" d="M35.287,23.932l-3.881-2.737a1.483,1.483,0,0,0-.555-1.08v-5.58a.929.929,0,0,0-1.858,0v5.58a1.486,1.486,0,0,0,1.331,2.59l3.893,2.745a.929.929,0,0,0,1.07-1.518Z" transform="translate(667.772 76.365)" fill="#114886" stroke="#114886" stroke-width="1"/>
  </g>
</svg>
