<svg xmlns="http://www.w3.org/2000/svg" width="36.867" height="21.771" viewBox="0 0 36.867 21.771">
  <g id="Shipping" transform="translate(3835.5 502)">
    <path id="Path_36190" data-name="Path 36190" d="M47.5,30.748,45.794,26.79a3.909,3.909,0,0,0-3.609-2.367H39.429V23.413A1.515,1.515,0,0,0,37.916,21.9H18.667a1,1,0,0,0-1.009,1.009,1.027,1.027,0,0,0,1.009,1.009H37.334v7.451A1.656,1.656,0,0,0,39,33.038h6.714v4.7a.348.348,0,0,1-.349.349H44.125A3.734,3.734,0,0,0,40.9,36.22a3.818,3.818,0,0,0-3.221,1.863H27.321A3.734,3.734,0,0,0,24.1,36.22a3.818,3.818,0,0,0-3.221,1.863h-3.57a1.009,1.009,0,1,0,0,2.018h3.066a3.729,3.729,0,0,0,7.451,0h9.353a3.729,3.729,0,0,0,7.451,0h.815a2.377,2.377,0,0,0,2.367-2.367V32.3A4.424,4.424,0,0,0,47.5,30.748Zm-23.4,10.9a1.708,1.708,0,1,1,1.708-1.708A1.723,1.723,0,0,1,24.1,41.653Zm16.8,0a1.708,1.708,0,1,1,1.708-1.708A1.723,1.723,0,0,1,40.9,41.653ZM39.39,26.479h2.755A1.818,1.818,0,0,1,43.853,27.6l1.475,3.415H39.39Z" transform="translate(-3846.445 -523.9)" fill="#114886"/>
    <path id="Path_36191" data-name="Path 36191" d="M13.309,34.818H20.45a1.009,1.009,0,1,0,0-2.018H13.309A1,1,0,0,0,12.3,33.809,1.027,1.027,0,0,0,13.309,34.818Z" transform="translate(-3843.997 -530.57)" fill="#114886"/>
    <path id="Path_36192" data-name="Path 36192" d="M8.409,44.818H15.55a1.009,1.009,0,0,0,0-2.018H8.409A1,1,0,0,0,7.4,43.809,1.027,1.027,0,0,0,8.409,44.818Z" transform="translate(-3840.999 -536.689)" fill="#114886"/>
    <path id="Path_36193" data-name="Path 36193" d="M11.7,53.809A1,1,0,0,0,10.688,52.8H3.509a1.009,1.009,0,0,0,0,2.018H10.65A.988.988,0,0,0,11.7,53.809Z" transform="translate(-3838 -542.809)" fill="#114886"/>
  </g>
</svg>
