<svg xmlns="http://www.w3.org/2000/svg" width="20.366" height="25.564" viewBox="0 0 20.366 25.564">
  <g id="Show_result" data-name="Show result" transform="translate(-63.691 -2.25)">
    <g id="Group_27986" data-name="Group 27986" transform="translate(63.941 2.5)">
      <path id="Path_36062" data-name="Path 36062" d="M29.945,2.5H14.7a2.3,2.3,0,0,0-2.3,2.3V25.268a2.3,2.3,0,0,0,2.3,2.3H29.971a2.3,2.3,0,0,0,2.3-2.3V4.8A2.337,2.337,0,0,0,29.945,2.5Zm1.4,22.768a1.385,1.385,0,0,1-1.4,1.372H14.7a1.4,1.4,0,0,1-1.4-1.372V4.8a1.408,1.408,0,0,1,1.4-1.4H29.971a1.408,1.408,0,0,1,1.4,1.4V25.268Z" transform="translate(-12.4 -2.5)" fill="#114886" stroke="#114886" stroke-width="0.5"/>
      <path id="Path_36063" data-name="Path 36063" d="M37.82,28.293l2.348-2.348,1.187,1.187a.431.431,0,0,0,.633,0l2.48-2.48.449.449a.216.216,0,0,0,.369-.132l.237-1.741a.21.21,0,0,0-.237-.237l-1.741.237a.216.216,0,0,0-.132.369l.449.449L41.7,26.209,40.485,25a.431.431,0,0,0-.633,0L37.214,27.66a.431.431,0,0,0,0,.633A.447.447,0,0,0,37.82,28.293Z" transform="translate(-29.565 -18.582)" fill="#114886" stroke="#114886" stroke-width="0.5"/>
      <path id="Path_36064" data-name="Path 36064" d="M39.68,63.1H29.549a.449.449,0,1,0,0,.9h10.1a.462.462,0,0,0,.449-.449A.409.409,0,0,0,39.68,63.1Z" transform="translate(-24.694 -47.112)" fill="#114886" stroke="#114886" stroke-width="0.5"/>
      <path id="Path_36065" data-name="Path 36065" d="M39.68,78.6H29.549a.449.449,0,1,0,0,.9h10.1a.462.462,0,0,0,.449-.449A.409.409,0,0,0,39.68,78.6Z" transform="translate(-24.694 -58.523)" fill="#114886" stroke="#114886" stroke-width="0.5"/>
      <path id="Path_36066" data-name="Path 36066" d="M39.68,26.619H30V19.549a.449.449,0,0,0-.9,0v7.519a.462.462,0,0,0,.449.449h10.1a.462.462,0,0,0,.449-.449A.409.409,0,0,0,39.68,26.619Z" transform="translate(-24.694 -14.72)" fill="#114886" stroke="#114886" stroke-width="0.5"/>
    </g>
  </g>
</svg>
