<svg xmlns="http://www.w3.org/2000/svg" width="23.96" height="26.251" viewBox="0 0 23.96 26.251">
  <g id="Group_27970" data-name="Group 27970" transform="translate(-1151.651 -84.441)">
    <g id="Group_27969" data-name="Group 27969" transform="translate(295.951)">
      <g id="Group_27925" data-name="Group 27925" transform="translate(257)">
        <g id="Group_27917" data-name="Group 27917" transform="translate(9)">
          <path id="Path_35536" data-name="Path 35536" d="M24.844,5H11.063A3.072,3.072,0,0,0,8,8.063V26.438A3.072,3.072,0,0,0,11.063,29.5H24.844a3.072,3.072,0,0,0,3.063-3.063V8.063A3.072,3.072,0,0,0,24.844,5Z" transform="translate(582.575 80.316)" fill="none" stroke="#114886" stroke-width="1.75"/>
        </g>
      </g>
    </g>
    <rect id="Rectangle_2649" data-name="Rectangle 2649" width="6" height="11" transform="translate(1169 87)" fill="#fff"/>
    <g id="noun_Pencil_151705" transform="translate(1152.544 81.768)">
      <g id="Group_27968" data-name="Group 27968" transform="translate(6.4 6.4)">
        <path id="Path_36018" data-name="Path 36018" d="M11.089,21.621l.076-.076h0L18.9,13.812h0l3.99-3.99-.3-.284h0L19.749,6.7h0l-.3-.3-3.99,3.99h0L7.742,18.123h0l-.076.076L6.4,22.888l4.576-1.229Zm.057-5.71L15.759,11.3l2.231,2.212-7.128,7.128L8.65,18.407ZM21.678,9.822l-1.664,1.664L17.783,9.274,19.447,7.61ZM19.409,12.11l-.813.813-2.231-2.231.813-.813ZM8.272,19.239l1.8,1.8L7.629,21.7Z" transform="translate(-6.4 -6.4)" fill="#114886" stroke="#114886" stroke-width="0.25"/>
      </g>
    </g>
  </g>
</svg>
