<svg xmlns="http://www.w3.org/2000/svg" width="26.103" height="26.109" viewBox="0 0 26.103 26.109">
  <g id="Upload" transform="translate(92.688 -2.391)">
    <g id="Group_28030" data-name="Group 28030" transform="translate(-96 -954.452)">
      <path id="Path_36196" data-name="Path 36196" d="M16.268,4.987a.837.837,0,0,0-.488.244L10.2,10.809a.837.837,0,1,0,1.177,1.177l4.149-4.158V23.674a.837.837,0,1,0,1.674,0V7.828l4.158,4.158a.837.837,0,1,0,1.177-1.177L16.956,5.231A.837.837,0,0,0,16.268,4.987ZM4.64,22.82a.837.837,0,0,0-.828.854v1.952a4.471,4.471,0,0,0,4.463,4.463H24.452a4.471,4.471,0,0,0,4.463-4.463V23.674a.837.837,0,1,0-1.674,0v1.952a2.765,2.765,0,0,1-2.789,2.789H8.275a2.765,2.765,0,0,1-2.789-2.789V23.674a.837.837,0,0,0-.845-.854Z" transform="translate(0 952.362)" fill="#114886" stroke="#114886" stroke-width="1"/>
    </g>
  </g>
</svg>
