<svg xmlns="http://www.w3.org/2000/svg" width="34.392" height="24.442" viewBox="0 0 34.392 24.442">
  <g id="noun_users_1407676" transform="translate(52.75 -158.178)">
    <g id="Group_28009" data-name="Group 28009" transform="translate(-52 158.928)">
      <path id="Path_36173" data-name="Path 36173" d="M45.958,66.573a3.7,3.7,0,0,1,3.718,3.718,3.771,3.771,0,1,1-7.542,0A3.72,3.72,0,0,1,45.958,66.573ZM35.161,64a3.787,3.787,0,0,1,3.718,3.824,3.932,3.932,0,0,1-3.718,3.824,3.824,3.824,0,0,1,0-7.648Zm-.637,9.634h1.168a5.29,5.29,0,0,1,4.249,2.018,6.758,6.758,0,0,0-3.824,6.055v2.656A10.344,10.344,0,0,1,29,82.663V79.052A5.464,5.464,0,0,1,34.524,73.634ZM55.837,64a3.826,3.826,0,0,1,0,7.648,3.95,3.95,0,0,1-3.824-3.824A3.808,3.808,0,0,1,55.837,64ZM55.2,73.634h1.168a5.464,5.464,0,0,1,5.524,5.418v3.612a11.823,11.823,0,0,1-7.011,1.806V81.707a6.4,6.4,0,0,0-3.617-6.055A4.993,4.993,0,0,1,55.2,73.634ZM45.321,76.1h1.168a5.486,5.486,0,0,1,5.524,5.524V85.13c-1.806,1.487-7.754,3.187-12.216,0V81.625A5.554,5.554,0,0,1,45.321,76.1Z" transform="translate(-29 -64)" fill="none" stroke="#114886" stroke-width="1.5" fill-rule="evenodd"/>
    </g>
  </g>
</svg>
