<svg xmlns="http://www.w3.org/2000/svg" width="22.428" height="24.668" viewBox="0 0 22.428 24.668">
  <g id="View_charts" data-name="View charts" transform="translate(-947.953 -84.368)">
    <path id="Path_35844" data-name="Path 35844" d="M20.121,34.832a1.349,1.349,0,0,0,.791.285,1.23,1.23,0,0,0,1.013-.507l5.635-7.186,2.786,2.786a1.34,1.34,0,0,0,.95.38,1.282,1.282,0,0,0,.95-.443l5.033-5.73,1.741,1.519A.971.971,0,0,0,40.6,25.4l1.425-7.091A.97.97,0,0,0,40.76,17.2L33.923,19.51a.967.967,0,0,0-.317,1.646l1.741,1.519-4.115,4.717-2.849-2.817a1.312,1.312,0,0,0-1.013-.38,1.246,1.246,0,0,0-.95.506L19.9,33A1.308,1.308,0,0,0,20.121,34.832Z" transform="translate(928.332 67.215)" fill="#008e7d"/>
    <rect id="Rectangle_1758" data-name="Rectangle 1758" width="4.808" height="13.221" transform="translate(964.033 95.815)" fill="#008e7d"/>
    <rect id="Rectangle_1759" data-name="Rectangle 1759" width="4.808" height="8.413" transform="translate(954.418 100.622)" fill="#008e7d"/>
  </g>
</svg>
