<svg xmlns="http://www.w3.org/2000/svg" width="21.907" height="26.501" viewBox="0 0 21.907 26.501">
  <g id="View_Bills" data-name="View Bills" transform="translate(-325.575 -82.316)">
    <g id="Group_27980" data-name="Group 27980" transform="translate(-264 -2)">
      <path id="Path_35536" data-name="Path 35536" d="M24.844,5H11.063A3.072,3.072,0,0,0,8,8.063V26.438A3.072,3.072,0,0,0,11.063,29.5H24.844a3.072,3.072,0,0,0,3.063-3.063V8.063A3.072,3.072,0,0,0,24.844,5Z" transform="translate(582.575 80.316)" fill="none" stroke="#114886" stroke-width="2"/>
      <rect id="Rectangle_31" data-name="Rectangle 31" width="12.079" height="1.531" transform="translate(594.388 100.629)" fill="#114886"/>
      <path id="Path_35538" data-name="Path 35538" d="M0,0H12.079V1.531H0Z" transform="translate(594.388 104.457)" fill="#114886"/>
    </g>
    <path id="Billing" d="M28.113,21.639c0,.541-.686.834-1.33.834-.728,0-1.366-.448-1.366-.959H23.7A2.766,2.766,0,0,0,25.9,24.082v1.193h1.722V24.1a2.6,2.6,0,0,0,2.211-2.463c0-.849-.487-2.018-2.806-2.765-.98-.316-1.612-.758-1.612-1.126,0-.541.686-.834,1.33-.834.728,0,1.366.448,1.366.959h1.722a2.767,2.767,0,0,0-2.211-2.57V14.111H25.9v1.175A2.6,2.6,0,0,0,23.7,17.748c0,.849.486,2.017,2.806,2.765.979.316,1.613.758,1.613,1.126Z" transform="translate(306.594 72.209)" fill="#114886"/>
  </g>
</svg>
