<svg xmlns="http://www.w3.org/2000/svg" width="32" height="23.24" viewBox="0 0 32 23.24">
  <g id="noun_signature_1934316" transform="translate(-0.499 -4.879)">
    <g id="Group_27820" data-name="Group 27820">
      <path id="Path_35960" data-name="Path 35960" d="M27.523,6.77,15.851,18.441a1.727,1.727,0,0,0,0,2.443l.645.645a1.729,1.729,0,0,0,2.443,0L30.612,9.857Z"/>
      <path id="Path_35961" data-name="Path 35961" d="M15.342,21.393a2.29,2.29,0,0,1-.614-1.115l-.053.145c-.108.3-.287.785-.4,1.082l-.724,1.979c0,.01-.005.02-.008.027l.876-.875a.228.228,0,0,1,.322.322l-.875.877.028-.01,1.979-.723,1.082-.4.145-.053a2.311,2.311,0,0,1-1.116-.613Z"/>
      <path id="Path_35962" data-name="Path 35962" d="M31.994,6.031l-.645-.645a1.725,1.725,0,0,0-2.443,0l-.865.865,3.088,3.088.865-.865A1.729,1.729,0,0,0,31.994,6.031Z"/>
      <path id="Path_35963" data-name="Path 35963" d="M30.637,10.645l-5.26,5.26a.54.54,0,1,0,.764.764l5.259-5.26a.54.54,0,1,0-.763-.764Z"/>
      <path id="Path_35964" data-name="Path 35964" d="M16.117,24.9H12.189a7.673,7.673,0,0,0-2.811.49c-.645.229-.7.246-1.3-.3a4.9,4.9,0,0,1-.543-.641,2.4,2.4,0,0,0-1.994-1.281c-1.395.078-1.518,1.529-1.591,2.4-.012.146-.026.309-.045.469-.1-.3-.187-.621-.257-.869-.114-.406-.232-.824-.359-1.176-.264-.727-.725-.826-1-.82s-1,.021-1.753,2.412a.721.721,0,1,0,1.375.433c.078-.248.174-.506.271-.738.026.092.053.186.079.279.371,1.318.664,2.357,1.46,2.547a1.007,1.007,0,0,0,.225.025,1.1,1.1,0,0,0,.827-.4,3.368,3.368,0,0,0,.614-2.035c.028-.336.081-.963.234-1.08.208-.008.433.275.767.715a6,6,0,0,0,.72.832,2.236,2.236,0,0,0,2.752.6,6.2,6.2,0,0,1,2.331-.408h3.928a.72.72,0,1,0,0-1.441Z"/>
    </g>
  </g>
</svg>
