<?xml version="1.0" encoding="iso-8859-1"?>
<!-- Generator: Adobe Illustrator 19.0.0, SVG Export Plug-In . SVG Version: 6.00 Build 0)  -->
<svg version="1.1" id="Capa_1" xmlns="http://www.w3.org/2000/svg" xmlns:xlink="http://www.w3.org/1999/xlink" x="0px" y="0px"
	 viewBox="0 0 512.002 512.002" style="enable-background:new 0 0 512.002 512.002;" xml:space="preserve">
<g>
	<g>
		<path d="M507.607,4.396c-5.859-5.859-15.352-5.859-21.211,0l-91.7,91.7c-16.69-7.875-37.097-5.339-50.896,8.459l-12.748,12.748
			c-16.686-7.877-37.097-5.325-50.885,8.463l-10.613,10.613l31.824,31.824c5.859,5.859,5.859,15.352,0,21.211
			c-5.859,5.859-15.351,5.86-21.211,0l-31.822-31.822l-42.42,42.424l31.82,31.82c5.859,5.859,5.859,15.352,0,21.211
			c-5.859,5.859-15.351,5.86-21.211,0l-31.82-31.82l-42.435,42.438l31.818,31.818c5.859,5.859,5.859,15.352,0,21.211
			s-15.351,5.86-21.211,0l-31.818-31.818l-21.29,21.293L89.209,295.6c-5.859-5.859-15.352-5.859-21.211,0s-5.859,15.352,0,21.211
			l31.972,31.972l-63.653,63.422l-10.712-10.712c-5.859-5.859-15.352-5.859-21.211,0s-5.859,15.352,0,21.211
			c28.715,28.715,81.886,81.886,84.902,84.902c5.859,5.859,15.351,5.86,21.211,0c5.859-5.859,5.859-15.352,0-21.211L99.832,475.72
			l63.647-63.428l31.71,31.71c5.859,5.859,15.351,5.86,21.211,0c5.859-5.859,5.859-15.352,0-21.211l-10.569-10.569l180.421-180.387
			c13.764-13.799,16.313-34.193,8.445-50.881l12.751-12.751c13.79-13.79,16.34-34.197,8.459-50.896l91.7-91.7
			C513.467,19.747,513.467,10.255,507.607,4.396z"/>
	</g>
</g>
<g>
</g>
<g>
</g>
<g>
</g>
<g>
</g>
<g>
</g>
<g>
</g>
<g>
</g>
<g>
</g>
<g>
</g>
<g>
</g>
<g>
</g>
<g>
</g>
<g>
</g>
<g>
</g>
<g>
</g>
</svg>
